<svg xmlns="http://www.w3.org/2000/svg" width="18" height="18" viewBox="0 0 24 24">
  <g id="close_white_icon_24px" transform="translate(-48.941 -281.937)">
    <rect id="Rectangle_3290" data-name="Rectangle 3290" width="24" height="24" transform="translate(48.941 281.937)" fill="none"/>
    <path id="Path_1951" data-name="Path 1951" d="M72.622,304.007,62.517,293.924,72.6,283.84a1.108,1.108,0,0,0-1.567-1.566L60.945,292.356l-10.083-10.1a1.109,1.109,0,0,0-1.567,1.568l10.083,10.1L49.295,304.007a1.108,1.108,0,1,0,1.509,1.624c.02-.018.039-.037.058-.057L60.945,295.49l10.084,10.084a1.108,1.108,0,0,0,1.566,0h0a1.09,1.09,0,0,0,.052-1.541Z" fill="#fff"/>
  </g>
</svg>
