<svg xmlns="http://www.w3.org/2000/svg" width="24" height="24" viewBox="0 0 32 32">
  <g id="communications-icn-32" transform="translate(4537 -20426)">
    <rect id="Rectangle_12079" data-name="Rectangle 12079" width="32" height="32" rx="4" transform="translate(-4537 20426)" fill="none"/>
    <path id="communications-icn" d="M10268.938,15636.035l-3.567-3.422h-12.008a3.146,3.146,0,0,1-2.265-.966,3.288,3.288,0,0,1-.941-2.314v-1.527h-1.279l-3.567,3.422a.77.77,0,0,1-.533.216.78.78,0,0,1-.565-.251.81.81,0,0,1-.2-.416H10244v-15.5a3.289,3.289,0,0,1,.942-2.315,3.142,3.142,0,0,1,2.268-.966h13.672a3.139,3.139,0,0,1,2.269.966,3.288,3.288,0,0,1,.941,2.315v1.526h2.947a3.158,3.158,0,0,1,2.269.965,3.294,3.294,0,0,1,.941,2.319v15.493h-.012a.792.792,0,0,1-.2.416.764.764,0,0,1-1.1.035Zm-17.228-6.7a1.686,1.686,0,0,0,.491,1.2,1.6,1.6,0,0,0,1.161.5h12.314a.755.755,0,0,1,.564.251l2.453,2.347v-13.535a1.7,1.7,0,0,0-.491-1.2,1.613,1.613,0,0,0-1.165-.5h-2.947v6.13a3.288,3.288,0,0,1-.941,2.315,3.138,3.138,0,0,1-2.269.965h-9.171Zm-5.666-15.25a1.7,1.7,0,0,0-.486,1.2v13.538l2.448-2.351a.78.78,0,0,1,.565-.251h12.31a1.64,1.64,0,0,0,1.17-.494,1.722,1.722,0,0,0,.486-1.2v-9.241a1.706,1.706,0,0,0-.486-1.2,1.629,1.629,0,0,0-1.17-.5h-13.672A1.616,1.616,0,0,0,10246.045,15614.083Zm11.458,7.433a2.416,2.416,0,0,1-.082-3.269l.082-.091a2.281,2.281,0,0,1,1.645-.7h0a2.294,2.294,0,0,1,1.641.7l0,0a2.413,2.413,0,0,1,0,3.355.269.269,0,0,1-.051.043,2.281,2.281,0,0,1-3.242-.043Zm1.1-2.24-.052.051a.813.813,0,0,0-.176.51.8.8,0,0,0,.228.562.757.757,0,0,0,.541.228.769.769,0,0,0,.519-.2l.023-.027a.807.807,0,0,0,.228-.562.792.792,0,0,0-.224-.561l-.04-.04a.763.763,0,0,0-1.047.04Zm-6.2,2.24a2.415,2.415,0,0,1-.083-3.269l.083-.091a2.279,2.279,0,0,1,1.644-.7h0a2.294,2.294,0,0,1,1.641.7l0,0a2.408,2.408,0,0,1,0,3.352l-.008,0a2.28,2.28,0,0,1-3.284,0Zm1.1-2.24-.052.051a.813.813,0,0,0-.176.51.8.8,0,0,0,.224.562.766.766,0,0,0,.545.228.752.752,0,0,0,.542-.228.8.8,0,0,0,.228-.562.809.809,0,0,0-.224-.561l-.039-.04a.765.765,0,0,0-1.048.04Zm-6.2,2.24,0,0a2.406,2.406,0,0,1,0-3.352l0,0a2.275,2.275,0,0,1,3.28,0l0,0a2.408,2.408,0,0,1,0,3.352l0,0a2.275,2.275,0,0,1-3.28,0Zm1.1-2.24a.782.782,0,0,0-.228.561.792.792,0,0,0,.224.562.767.767,0,0,0,1.091,0,.8.8,0,0,0,.224-.562.788.788,0,0,0-.224-.561.751.751,0,0,0-.546-.229A.732.732,0,0,0,10248.4,15619.275Z" transform="translate(-14778.124 4817.875)" fill="#080808"/>
  </g>
</svg>