<svg xmlns="http://www.w3.org/2000/svg" width="24" height="24" viewBox="0 0 24 24">
  <g id="customer-change-request-icn-24" transform="translate(-589 -426)">
    <rect id="Rectangle_9938" data-name="Rectangle 9938" width="24" height="24" transform="translate(589 426)" fill="none"/>
    <g id="customer-change-request-icn" transform="translate(591.3 428)">
      <path id="noun-change-5542156-404040" d="M52.523,51.359a1.721,1.721,0,1,0-1.938,0,2.536,2.536,0,0,0-1.9,2.175,1.209,1.209,0,0,0,1.2,1.344h3.331a1.209,1.209,0,0,0,1.2-1.344,2.522,2.522,0,0,0-1.893-2.175Zm-.967-2.625a1.2,1.2,0,1,1-1.2,1.2A1.2,1.2,0,0,1,51.556,48.734Zm2.18,5.4a.665.665,0,0,1-.515.231H49.891a.665.665,0,0,1-.515-.231.658.658,0,0,1-.17-.538A2.015,2.015,0,0,1,51.211,51.8H51.9a2.017,2.017,0,0,1,2.006,1.792.675.675,0,0,1-.172.538Zm-2.18-7.771A5.548,5.548,0,1,0,57.1,51.908a5.552,5.552,0,0,0-5.544-5.548Zm0,10.582a5.031,5.031,0,1,1,5.027-5.031,5.036,5.036,0,0,1-5.027,5.031Z" transform="translate(-41.929 -41.988)" fill="#404040"/>
      <g id="Group_28474" data-name="Group 28474" transform="translate(0 0)">
        <path id="Path_47247" data-name="Path 47247" d="M803.526,44.622a9.032,9.032,0,0,0-1.341.713.4.4,0,0,1-.425-.675,9.856,9.856,0,0,1,1.458-.775.4.4,0,0,1,.308.737h0Z" transform="translate(-797.216 -43.12)" fill="#404040" stroke="#fff" stroke-width="0.1"/>
        <path id="Path_47248" data-name="Path 47248" d="M426.323,2.72a.392.392,0,0,1-.1-.014,9,9,0,0,0-1.49-.28.4.4,0,0,1,.079-.8,9.786,9.786,0,0,1,1.62.3.4.4,0,0,1-.1.787Z" transform="translate(-413.963 -1.599)" fill="#404040" stroke="#fff" stroke-width="0.1"/>
        <path id="Path_47249" data-name="Path 47249" d="M617.2.806a8.967,8.967,0,0,0-1.5.226.4.4,0,0,1-.182-.779,9.764,9.764,0,0,1,1.63-.246.4.4,0,0,1,.051.8h0Z" transform="translate(-607.952 -0.007)" fill="#404040" stroke="#fff" stroke-width="0.1"/>
        <path id="Path_47250" data-name="Path 47250" d="M963.612,148.521a.4.4,0,0,1-.62-.5,10.007,10.007,0,0,1,1.127-1.215c.377-.344.911.248.53.594a9.218,9.218,0,0,0-1.037,1.118Z" transform="translate(-960.885 -144.259)" fill="#404040" stroke="#fff" stroke-width="0.1"/>
        <path id="Path_47251" data-name="Path 47251" d="M1082.6,299.015a.4.4,0,0,1-.747-.263,10,10,0,0,1,.671-1.523.4.4,0,0,1,.693.386,9.252,9.252,0,0,0-.617,1.4Z" transform="translate(-1081.329 -292.077)" fill="#404040" stroke="#fff" stroke-width="0.1"/>
        <path id="Path_47253" data-name="Path 47253" d="M28.114,478.373a.4.4,0,0,1,.781.133c-.075.45-.1,1.461-.1,1.522a9.121,9.121,0,0,0,8.958,9.256,9,9,0,0,0,7.941-4.972l-.813.431a.4.4,0,0,1-.368-.709l1.814-.963a.4.4,0,0,1,.574.286l.349,2.026a.4.4,0,0,1-.78.138l-.127-.737a9.809,9.809,0,0,1-8.591,5.3A9.937,9.937,0,0,1,28,480.155h0a13.386,13.386,0,0,1,.111-1.782h0c.083-.5-.075.451,0,0,.083-.5-.075.451,0,0,.083-.5-.075.451,0,0Z" transform="translate(-27.999 -470.083)" fill="#404040" stroke="#fff" stroke-width="0.1"/>
        <path id="Path_47255" data-name="Path 47255" d="M251.786,53.748a.39.39,0,0,1-.224-.071,9.075,9.075,0,0,0-1.316-.762.4.4,0,0,1,.334-.726,9.849,9.849,0,0,1,1.43.828.406.406,0,0,1-.225.73Z" transform="translate(-236.568 -51.281)" fill="#404040" stroke="#fff" stroke-width="0.1"/>
      </g>
    </g>
  </g>
</svg>
