<svg xmlns="http://www.w3.org/2000/svg" width="24" height="24" viewBox="0 0 24 24">
  <g id="customers-icn-24" transform="translate(-20 -185)">
    <rect id="Rectangle_9934" data-name="Rectangle 9934" width="24" height="24" transform="translate(20 185)" fill="none"/>
    <path id="customers-icn" d="M94.672,203.99a3.192,3.192,0,0,0-3.225,3.151,3.16,3.16,0,0,0,2.24,3,5.437,5.437,0,0,0-2.907,1.545,3.99,3.99,0,0,0-1.946-1.061,2.481,2.481,0,1,0-1.721,0,3.908,3.908,0,0,0-3.109,3.8v2.561a.243.243,0,0,0,.171.227,11.875,11.875,0,0,0,3.8.6.251.251,0,0,0,.178-.07.239.239,0,0,0,0-.345.251.251,0,0,0-.178-.07,11.441,11.441,0,0,1-3.473-.53v-2.371a3.425,3.425,0,0,1,3.473-3.4,3.491,3.491,0,0,1,2.481,1.023,5.471,5.471,0,0,0-1.24,3.485v3.379a.243.243,0,0,0,.163.227,16.777,16.777,0,0,0,10.581,0,.243.243,0,0,0,.171-.227v-1.159c.4.04.818.061,1.24.061a11.874,11.874,0,0,0,3.8-.6.243.243,0,0,0,.171-.227v-2.561a3.908,3.908,0,0,0-3.109-3.8,2.477,2.477,0,1,0-1.729,0,4.014,4.014,0,0,0-1.946,1.053,5.437,5.437,0,0,0-2.9-1.538,3.16,3.16,0,0,0,2.24-3,3.192,3.192,0,0,0-3.225-3.152Zm0,.485a2.667,2.667,0,1,1-2.729,2.667A2.695,2.695,0,0,1,94.672,204.475Zm-6.7,1.939a1.94,1.94,0,1,1-1.985,1.939A1.959,1.959,0,0,1,87.974,206.414Zm13.4,0a1.94,1.94,0,1,1-1.985,1.939A1.959,1.959,0,0,1,101.369,206.414Zm-6.7,4.121a4.962,4.962,0,0,1,4.961,4.992v3.189a16.088,16.088,0,0,1-9.923.008v-3.2a4.962,4.962,0,0,1,4.961-4.992Zm6.7.485a3.425,3.425,0,0,1,3.473,3.4v2.371a11.392,11.392,0,0,1-3.473.53,12.139,12.139,0,0,1-1.24-.068v-1.727a5.471,5.471,0,0,0-1.24-3.485,3.5,3.5,0,0,1,2.481-1.023Z" transform="translate(-62.338 -14.657)" fill="#404040" stroke="#404040" stroke-width="0.25"/>
  </g>
</svg>
