<svg id="delete" xmlns="http://www.w3.org/2000/svg" width="18" height="18" viewBox="0 0 12 12">
  <path id="Path_47170" data-name="Path 47170" d="M36,30a6,6,0,1,0,6,6A6.005,6.005,0,0,0,36,30Zm0,11.179A5.179,5.179,0,1,1,41.179,36,5.186,5.186,0,0,1,36,41.179Z" transform="translate(-30 -30)" fill="#3f3f3f"/>
  <path id="Path_47171" data-name="Path 47171" d="M385.182,382.022a.4.4,0,0,0-.581,0l-1.592,1.592-1.6-1.592a.411.411,0,0,0-.581.581l1.6,1.592-1.592,1.6a.4.4,0,0,0,0,.581.428.428,0,0,0,.581,0l1.592-1.6,1.6,1.6a.428.428,0,0,0,.581,0,.4.4,0,0,0,0-.581l-1.6-1.6,1.6-1.6a.4.4,0,0,0-.013-.568Z" transform="translate(-377.009 -378.194)" fill="#3f3f3f"/>
</svg>
