<svg xmlns="http://www.w3.org/2000/svg" width="24" height="24" viewBox="0 0 24 24">
  <g id="doctor-icn-24" transform="translate(-367 -484)">
    <circle id="Ellipse_1194" data-name="Ellipse 1194" cx="12" cy="12" r="12" transform="translate(367 484)" fill="#ff9e9f"/>
    <path id="doctor-icn" d="M23.182,14.332a2.256,2.256,0,0,0-2.1-1.5,2.21,2.21,0,0,0-2.25,2.25,2.185,2.185,0,0,0,1.5,2.1v1.275a3.375,3.375,0,1,1-6.749,0v-.75l2.325-1.875a3.8,3.8,0,0,0,1.424-2.924V9.082a.709.709,0,0,0-.75-.75h-1.5a.75.75,0,0,0,0,1.5h.75v3.075a2.134,2.134,0,0,1-.825,1.725l-2.175,1.725-2.175-1.725a2.134,2.134,0,0,1-.825-1.725V9.832h.75a.75.75,0,1,0,0-1.5h-1.5a.709.709,0,0,0-.75.75v3.825a3.7,3.7,0,0,0,1.425,2.925l2.325,1.875v.75a4.875,4.875,0,1,0,9.749,0V17.183a2.144,2.144,0,0,0,1.35-2.85Z" transform="translate(363.668 480.668)" fill="#080808"/>
  </g>
</svg>
