<svg xmlns="http://www.w3.org/2000/svg" width="24" height="24" viewBox="0 0 24 24">
  <g id="doctor-prescriptions-icn-24" transform="translate(-20 -71)">
    <rect id="Rectangle_3285" data-name="Rectangle 3285" width="24" height="24" transform="translate(20 71)" fill="none"/>
    <g id="doctor-prescription-icn" transform="translate(21.333 72.333)">
      <path id="Path_47238" data-name="Path 47238" d="M353.171,881.215a.429.429,0,1,1-.429-.429.429.429,0,0,1,.429.429" transform="translate(-346.684 -864.415)" fill="#404040"/>
      <path id="Path_47239" data-name="Path 47239" d="M353.171,946.835a.429.429,0,1,1-.429-.429.429.429,0,0,1,.429.429" transform="translate(-346.684 -928.701)" fill="#404040"/>
      <path id="Path_47240" data-name="Path 47240" d="M370.02,78.9l-2.9-3.516a1.033,1.033,0,0,0-.8-.38H355.667a1.069,1.069,0,0,0-1.049,1.085v3.291a.381.381,0,0,0,.763,0V76.092a.307.307,0,0,1,.286-.323H365.76v3.15a1.148,1.148,0,0,0,1.147,1.146h2.6v15.19a.307.307,0,0,1-.286.323H355.667a.307.307,0,0,1-.286-.323v-.749a.381.381,0,0,0-.763,0v.749a1.069,1.069,0,0,0,1.049,1.085h13.556a1.069,1.069,0,0,0,1.049-1.085V79.609a1.109,1.109,0,0,0-.251-.705Zm-3.5.016V75.866l0,.005,2.834,3.431h-2.455a.384.384,0,0,1-.384-.384Z" transform="translate(-348.938 -75.007)" fill="#404040" stroke="#fff" stroke-width="0.3"/>
      <path id="Path_47241" data-name="Path 47241" d="M253.619,500.04h-.538v1.534h.538a.767.767,0,1,0,0-1.534Z" transform="translate(-249.471 -491.404)" fill="#404040"/>
      <path id="Path_47242" data-name="Path 47242" d="M85.905,352.023a5.153,5.153,0,1,0-5.153,5.143A5.154,5.154,0,0,0,85.905,352.023Zm-2.981,2.124a.381.381,0,1,1-.5.576l-.921-.8-.921.8a.381.381,0,1,1-.5-.576l.838-.725-1.311-1.134h-.4v1.134a.382.382,0,0,1-.763,0v-3.811a.381.381,0,0,1,.382-.381h.92a1.528,1.528,0,0,1,.778,2.845l.974.843.921-.8a.381.381,0,1,1,.5.576l-.838.725.838.725Z" transform="translate(-75.6 -341.356)" fill="#404040"/>
      <path id="Path_47246" data-name="Path 47246" d="M629.864,422.814h5.543a1.019,1.019,0,0,0,.986-1.048v-.678a1.019,1.019,0,0,0-.986-1.048h-5.543a1.019,1.019,0,0,0-.986,1.048v.678A1.019,1.019,0,0,0,629.864,422.814Zm-.269-1.726a.278.278,0,0,1,.269-.286h5.543a.278.278,0,0,1,.269.286v.678a.278.278,0,0,1-.269.286h-5.543a.278.278,0,0,1-.269-.286Z" transform="translate(-617.545 -413.031)" fill="#404040"/>
      <g id="Group_28473" data-name="Group 28473" transform="translate(11.333 11.241)">
        <path id="Path_47289" data-name="Path 47289" d="M397.868,552.264l-.062,0c-1.065-.051-1.641-1.376-2.148-2.545a2.139,2.139,0,0,1-.2-1.843,1.608,1.608,0,0,1,1.073-.714.258.258,0,1,1,.116.5,1.115,1.115,0,0,0-.739.466c-.177.312.024.925.223,1.384.447,1.031.954,2.2,1.7,2.235.451.021,1.149-.363,1.911-2.316.217-.556.365-1.012.14-1.387a1.172,1.172,0,0,0-.767-.479.258.258,0,0,1,.113-.5,1.671,1.671,0,0,1,1.1.716,2.058,2.058,0,0,1-.1,1.84c-.685,1.756-1.477,2.646-2.354,2.646Z" transform="translate(-395.326 -546.6)" fill="#404040"/>
        <path id="Union_170" data-name="Union 170" d="M0,.713a.713.713,0,1,1,.713.713A.714.714,0,0,1,0,.713Z" transform="translate(0.92)" fill="#404040"/>
        <path id="Union_169" data-name="Union 169" d="M0,.713a.713.713,0,1,1,.713.713A.714.714,0,0,1,0,.713Z" transform="translate(2.703)" fill="#404040"/>
        <path id="Path_47294" data-name="Path 47294" d="M520.25,752.526a1.362,1.362,0,0,1-1.383-1.3v-1.043a.258.258,0,0,1,.516,0v1.043a.862.862,0,0,0,.867.785c.418,0,.867-.2.867-.635v-1.411a1.115,1.115,0,0,1,2.23,0v1.049a.258.258,0,0,1-.516,0v-1.049a.6.6,0,0,0-1.2,0v1.411A1.249,1.249,0,0,1,520.25,752.526Z" transform="translate(-516.6 -744.695)" fill="#404040"/>
        <path id="Path_47295" data-name="Path 47295" d="M694.229,851.3a.258.258,0,0,1-.167-.062l-.022-.012a1.684,1.684,0,0,1-.824-.992.792.792,0,0,1,.177-.675.734.734,0,0,1,.5-.217.636.636,0,0,0,.668,0,.727.727,0,0,1,.5.219h0a.764.764,0,0,1,.178.6c-.034.634-.755,1.036-.9,1.111a.258.258,0,0,1-.118.029Zm-.32-1.442a.238.238,0,0,0-.141.056.3.3,0,0,0-.043.233c.031.185.2.383.513.591.211-.135.48-.368.493-.613a.285.285,0,0,0-.041-.213.215.215,0,0,0-.141-.055s-.048,0-.147.091a.258.258,0,0,1-.346,0A.307.307,0,0,0,693.909,849.855Z" transform="translate(-687.736 -843.336)" fill="#404040"/>
      </g>
    </g>
  </g>
</svg>
