<svg xmlns="http://www.w3.org/2000/svg" width="16" height="16" viewBox="0 0 16 16">
  <g id="download-black-icn-16" transform="translate(-180.258 -387.452)">
    <rect id="Rectangle_3299" data-name="Rectangle 3299" width="16" height="16" rx="3" transform="translate(180.258 387.452)" fill="none"/>
    <g id="download-icn" transform="translate(180.259 386.725)">
      <path id="Subtraction_92" data-name="Subtraction 92" d="M1303.523-8060.166a.489.489,0,0,1-.488-.488.494.494,0,0,1,.45-.49h.045a2.3,2.3,0,0,0,1.223-.405,1.381,1.381,0,0,0,.591-1.15,1.845,1.845,0,0,0-.421-1.146l-.024-.034a1.764,1.764,0,0,0-1.491-.743h-.172a.241.241,0,0,1-.038,0,.44.44,0,0,1-.363-.17l-.008-.01a.434.434,0,0,1-.089-.423,2.75,2.75,0,0,0,.093-.719,2.73,2.73,0,0,0-2.7-2.756,2.731,2.731,0,0,0-2.7,2.756v.17a.491.491,0,0,1-.194.415.536.536,0,0,1-.3.089.463.463,0,0,1-.17-.031,2.8,2.8,0,0,0-1.055-.2,2.371,2.371,0,0,0-2.507,2.2,2.588,2.588,0,0,0,.281,1.219,1.753,1.753,0,0,0,1.484.907h.008a.043.043,0,0,1,.014,0,.3.3,0,0,0,.065.01.491.491,0,0,1,.413.476.49.49,0,0,1-.49.488.766.766,0,0,1-.164-.012l-.014,0a2.821,2.821,0,0,1-2.562-3.062,3.332,3.332,0,0,1,3.471-3.163,3.184,3.184,0,0,1,.634.057l.128.024.02-.127a3.8,3.8,0,0,1,1.237-2.258,3.629,3.629,0,0,1,2.394-.909,3.7,3.7,0,0,1,3.674,3.718,1.588,1.588,0,0,1-.012.243l-.02.122.122.022a2.749,2.749,0,0,1,1.79,1.1l0,.006a2.743,2.743,0,0,1,.63,1.733,2.618,2.618,0,0,1-2.716,2.52l-.024,0-.022.01A.143.143,0,0,1,1303.523-8060.166Z" transform="translate(-1291.125 8071.875)"/>
      <path id="Subtraction_91" data-name="Subtraction 91" d="M1294.726-8068.672h-1.987a.489.489,0,0,1-.49-.488.49.49,0,0,1,.49-.488h1.987a.489.489,0,0,1,.488.488A.488.488,0,0,1,1294.726-8068.672Z" transform="translate(-1288.641 8080.381)"/>
      <path id="Subtraction_90" data-name="Subtraction 90" d="M1292.737-8068.67h0a.493.493,0,0,1-.488-.478.484.484,0,0,1,.476-.486l1.679-.014a.483.483,0,0,1,.49.474.482.482,0,0,1-.476.488Z" transform="translate(-1282.268 8080.424)"/>
      <path id="Subtraction_89" data-name="Subtraction 89" d="M1294.667-8062.738a.446.446,0,0,1-.314-.117l-1.93-1.608a.482.482,0,0,1-.172-.324.5.5,0,0,1,.115-.363.486.486,0,0,1,.369-.174.5.5,0,0,1,.318.117l1.126.948v-4.9a.489.489,0,0,1,.488-.488.489.489,0,0,1,.488.488v5.917a.489.489,0,0,1-.28.444A.481.481,0,0,1,1294.667-8062.738Z" transform="translate(-1286.507 8077.946)"/>
      <path id="Subtraction_88" data-name="Subtraction 88" d="M1292.733-8067.1a.472.472,0,0,1-.373-.174.473.473,0,0,1-.107-.354.493.493,0,0,1,.178-.333l1.93-1.578a.47.47,0,0,1,.3-.111.5.5,0,0,1,.383.182.473.473,0,0,1,.109.349.494.494,0,0,1-.18.336l-1.946,1.566A.482.482,0,0,1,1292.733-8067.1Z" transform="translate(-1284.572 8082.307)"/>
    </g>
  </g>
</svg>