<svg xmlns="http://www.w3.org/2000/svg" width="24" height="24" viewBox="0 0 24 24">
  <g id="e-kyc-search-icn-24" transform="translate(-20 -431)">
    <rect id="Rectangle_9937" data-name="Rectangle 9937" width="24" height="24" transform="translate(20 431)" fill="none"/>
    <g id="e-kyc-search-icn" transform="translate(-30.63 -260.148)">
      <path id="Subtraction_60" data-name="Subtraction 60" d="M18.005,12.776H1.455A1.457,1.457,0,0,1,0,11.321V1.455A1.457,1.457,0,0,1,1.455,0h3.97a4.864,4.864,0,0,0,.639.723H1.455a.732.732,0,0,0-.731.731v9.888a.732.732,0,0,0,.731.731h16.55a.732.732,0,0,0,.731-.731V1.476a.732.732,0,0,0-.731-.731H13.4a5.5,5.5,0,0,0,.632-.723h3.973A1.446,1.446,0,0,1,19.46,1.454v9.867A1.457,1.457,0,0,1,18.005,12.776Z" transform="translate(52.63 700.372)" fill="#404040"/>
      <path id="Path_47532" data-name="Path 47532" d="M23.143,69.914A2.5,2.5,0,0,0,21.468,67.9a3.013,3.013,0,0,1-1.57.446,2.875,2.875,0,0,1-1.57-.446,2.466,2.466,0,0,0-1.676,2.016L16.481,71.1a.514.514,0,0,0,.509.594h5.771a.514.514,0,0,0,.509-.594Z" transform="translate(38.771 639.127)" fill="#404040"/>
      <path id="Path_47533" data-name="Path 47533" d="M25.118,51.531A2.016,2.016,0,1,0,23.1,49.516,2.015,2.015,0,0,0,25.118,51.531Z" transform="translate(33.551 655.197)" fill="#404040"/>
      <path id="Subtraction_61" data-name="Subtraction 61" d="M5.168.7H.351A.36.36,0,0,1,0,.351.36.36,0,0,1,.351,0h4.8A.36.36,0,0,1,5.5.351.341.341,0,0,1,5.168.7Z" transform="translate(63.791 703.576)" fill="#404040"/>
      <path id="Subtraction_62" data-name="Subtraction 62" d="M5.168.7H.351A.36.36,0,0,1,0,.351.36.36,0,0,1,.351,0h4.8A.36.36,0,0,1,5.5.351V.363a.3.3,0,0,1-.083.229A.338.338,0,0,1,5.168.7Z" transform="translate(63.791 706.42)" fill="#404040"/>
      <path id="Subtraction_63" data-name="Subtraction 63" d="M5.168.7H.351A.36.36,0,0,1,0,.351.36.36,0,0,1,.351,0h4.8A.36.36,0,0,1,5.5.351V.362A.3.3,0,0,1,5.419.6.342.342,0,0,1,5.168.7Z" transform="translate(63.791 709.263)" fill="#404040"/>
      <path id="Path_47537" data-name="Path 47537" d="M34.718,2.5a4.116,4.116,0,1,0,4.116,4.116A4.12,4.12,0,0,0,34.718,2.5Zm1.973,3.607L34.57,8.229a.61.61,0,0,1-.446.191.651.651,0,0,1-.446-.191L32.617,7.168a.615.615,0,0,1,.87-.87l.615.615,1.676-1.676a.628.628,0,0,1,.87,0,.562.562,0,0,1,.043.87Z" transform="translate(27.642 690.648)" fill="#404040"/>
    </g>
  </g>
</svg>
