<svg xmlns="http://www.w3.org/2000/svg" width="16" height="16" viewBox="0 0 16 16">
  <g id="edit-icn-16" transform="translate(-180.258 0)">
    <rect id="Rectangle_3295" data-name="Rectangle 3295" width="16" height="16" rx="3" transform="translate(180.258 0)" fill="none"/>
    <g id="Group_14565" data-name="Group 14565" transform="translate(181.258 1)">
      <path id="Union_136" data-name="Union 136" d="M2.151,14.155A2.154,2.154,0,0,1,0,12V3.532A2.154,2.154,0,0,1,2.151,1.38H4.88a.47.47,0,0,1,0,.94H2.149A1.219,1.219,0,0,0,.939,3.535V12A1.221,1.221,0,0,0,2.147,13.22h8.468A1.219,1.219,0,0,0,11.831,12V9.274a.469.469,0,1,1,.939,0V12a2.154,2.154,0,0,1-2.152,2.152Zm2.437-2.916a.828.828,0,0,1-.49-.43,1,1,0,0,1-.076-.692l.542-2.161A.548.548,0,0,1,4.68,7.72L11.026.569a1.625,1.625,0,0,1,2.469,0,2.165,2.165,0,0,1,0,2.781L7.167,10.5a.468.468,0,0,1-.216.134l-1.9.6-.243.037A.738.738,0,0,1,4.588,11.239ZM5.444,8.35l-.467,1.788,1.572-.481.018-.006,5.367-6.067.05-.056L10.845,2.246Zm6.287-7.071-.209.212L12.65,2.765l.167-.152.007-.007a1.006,1.006,0,0,0-.005-1.282.767.767,0,0,0-.566-.259A.759.759,0,0,0,11.731,1.279Z" transform="translate(0 0)" fill="#1c3ffd"/>
    </g>
  </g>
</svg>
