<svg xmlns="http://www.w3.org/2000/svg" width="16" height="16" viewBox="0 0 16 16">
  <g id="filter-icn-16" transform="translate(-170 -84)">
    <rect id="Rectangle_10432" data-name="Rectangle 10432" width="16" height="16" rx="3" transform="translate(170 84)" fill="none"/>
    <g id="filter-icn" transform="translate(171 86)">
      <path id="Path_478" data-name="Path 478" d="M2035.146,190.553a.532.532,0,0,1-.553.529h-8.566a1.653,1.653,0,0,1-1.566,1.059,1.671,1.671,0,0,1-1.565-1.059h-1.2a.53.53,0,1,1,0-1.058h1.2a1.652,1.652,0,0,1,1.565-1.059,1.671,1.671,0,0,1,1.566,1.059h8.566A.532.532,0,0,1,2035.146,190.553Zm-.553,3.882h-4.882a1.653,1.653,0,0,0-1.565-1.058,1.671,1.671,0,0,0-1.566,1.058H2021.7a.53.53,0,1,0,0,1.059h4.882a1.654,1.654,0,0,0,1.566,1.059,1.672,1.672,0,0,0,1.565-1.059h4.882a.53.53,0,1,0,0-1.059Zm-12.895-7.764h8.566a1.654,1.654,0,0,0,1.566,1.058,1.672,1.672,0,0,0,1.566-1.058h1.2a.53.53,0,1,0,0-1.059h-1.2a1.655,1.655,0,0,0-1.566-1.059,1.673,1.673,0,0,0-1.566,1.059H2021.7a.53.53,0,1,0,0,1.059Z" transform="translate(-2021.146 -184.553)" fill="#080808"/>
    </g>
  </g>
</svg>
