<svg xmlns="http://www.w3.org/2000/svg" width="24" height="24" viewBox="0 0 24 24">
  <g id="followup-icn-24" transform="translate(-20 -237)">
    <rect id="Rectangle_9935" data-name="Rectangle 9935" width="24" height="24" transform="translate(20 237)" fill="none"/>
    <g id="follow-up-icn" transform="translate(21.333 238.333)">
      <path id="Path_47247" data-name="Path 47247" d="M801.837,44.673a9.821,9.821,0,0,1,1.451.76.428.428,0,0,0,.46-.72,10.717,10.717,0,0,0-1.578-.827.427.427,0,0,0-.334.787h0Z" transform="translate(-787.333 -43.071)" fill="#404040" stroke="#fff" stroke-width="0.2"/>
      <path id="Path_47248" data-name="Path 47248" d="M424.8,2.793a.429.429,0,0,0,.113-.015,9.861,9.861,0,0,1,1.612-.3.427.427,0,0,0-.086-.85,10.729,10.729,0,0,0-1.753.325.43.43,0,0,0,.113.839Z" transform="translate(-416.84 -1.598)" fill="#404040" stroke="#fff" stroke-width="0.2"/>
      <path id="Path_47249" data-name="Path 47249" d="M615.619.86a9.836,9.836,0,0,1,1.621.241.427.427,0,0,0,.2-.831,10.71,10.71,0,0,0-1.764-.262.427.427,0,0,0-.055.852h0Z" transform="translate(-604.295 -0.007)" fill="#404040" stroke="#fff" stroke-width="0.2"/>
      <path id="Path_47250" data-name="Path 47250" d="M964.169,148.642a.428.428,0,0,0,.671-.531,10.735,10.735,0,0,0-1.22-1.3.428.428,0,0,0-.574.634,9.884,9.884,0,0,1,1.122,1.193Z" transform="translate(-945.786 -144.096)" fill="#404040" stroke="#fff" stroke-width="0.2"/>
      <path id="Path_47251" data-name="Path 47251" d="M1082.554,299.148a.428.428,0,0,0,.809-.281,10.565,10.565,0,0,0-.726-1.624.428.428,0,0,0-.75.412,9.8,9.8,0,0,1,.667,1.494Z" transform="translate(-1062.596 -291.747)" fill="#404040" stroke="#fff" stroke-width="0.2"/>
      <path id="Path_47252" data-name="Path 47252" d="M25.858,317.749a.426.426,0,0,0,.409-.3,9.749,9.749,0,0,1,.613-1.516.428.428,0,0,0-.765-.385,10.569,10.569,0,0,0-.666,1.649.434.434,0,0,0,.409.553Z" transform="translate(-24.978 -309.714)" fill="#404040" stroke="#fff" stroke-width="0.2"/>
      <path id="Path_47253" data-name="Path 47253" d="M48.71,478.394a.429.429,0,0,0-.845.141c.081.48.113,1.558.113,1.623a9.665,9.665,0,0,1-18.287,4.569l.88.46a.428.428,0,0,0,.4-.756L29.005,483.4a.436.436,0,0,0-.621.3l-.378,2.161a.429.429,0,0,0,.844.147l.138-.786A10.518,10.518,0,0,0,48.832,480.3h0a14.076,14.076,0,0,0-.12-1.9h0c-.09-.538.081.481,0,0-.09-.538.081.481,0,0-.09-.538.081.481,0,0Z" transform="translate(-27.501 -469.552)" fill="#404040" stroke="#fff" stroke-width="0.2"/>
      <path id="Path_47254" data-name="Path 47254" d="M.853,500.173a9.882,9.882,0,0,1,.084-1.283.429.429,0,0,0-.849-.111A10.768,10.768,0,0,0,0,500.173a.428.428,0,0,0,.856,0c0-.429,0,.235,0,0Z" transform="translate(0.003 -489.56)" fill="#404040" stroke="#fff" stroke-width="0.2"/>
      <path id="Path_47255" data-name="Path 47255" d="M250.444,53.855a.426.426,0,0,0,.243-.075,9.859,9.859,0,0,1,1.424-.812.427.427,0,0,0-.362-.774,10.7,10.7,0,0,0-1.548.883.432.432,0,0,0,.243.779Z" transform="translate(-245.579 -51.223)" fill="#404040" stroke="#fff" stroke-width="0.2"/>
      <path id="Path_47256" data-name="Path 47256" d="M112.391,162.954a.431.431,0,0,0,.345-.174,9.884,9.884,0,0,1,1.079-1.232.428.428,0,0,0-.6-.613,10.725,10.725,0,0,0-1.172,1.339.433.433,0,0,0,.344.68Z" transform="translate(-109.976 -157.955)" fill="#404040" stroke="#fff" stroke-width="0.2"/>
      <path id="Path_47257" data-name="Path 47257" d="M353.131,238.32a.174.174,0,0,0-.174.174v1.344a.174.174,0,0,0,.174.174h.529a.174.174,0,0,0,.174-.174v-1.344a.174.174,0,0,0-.174-.174Z" transform="translate(-346.682 -234.083)" fill="#404040"/>
      <path id="Path_47258" data-name="Path 47258" d="M675.449,238.32a.174.174,0,0,0-.174.174v1.344a.174.174,0,0,0,.174.174h.529a.174.174,0,0,0,.174-.174v-1.344a.174.174,0,0,0-.174-.174Z" transform="translate(-663.27 -234.083)" fill="#404040"/>
      <path id="Path_47259" data-name="Path 47259" d="M261.94,300.32h9.843v-1.594a.209.209,0,0,0-.216-.2H270.7v.269a.889.889,0,0,1-.888.888h-.172a.889.889,0,0,1-.888-.888v-.269h-3.782v.269a.889.889,0,0,1-.888.888h-.171a.889.889,0,0,1-.888-.888v-.269h-.867a.209.209,0,0,0-.216.2Z" transform="translate(-257.283 -293.218)" fill="#404040"/>
      <path id="Path_47260" data-name="Path 47260" d="M331.63,519.2h.99v1.006h-.99Z" transform="translate(-325.734 -509.97)" fill="#404040"/>
      <path id="Path_47261" data-name="Path 47261" d="M331.63,700.21h.99v1.006h-.99Z" transform="translate(-325.734 -687.762)" fill="#404040"/>
      <path id="Path_47262" data-name="Path 47262" d="M691.238,700.97v-.748h-.99v1.006h.712c.016-.017.032-.032.049-.049l.019-.019q.063-.063.13-.121l.019-.017C691.2,701.005,691.217,700.987,691.238,700.97Z" transform="translate(-677.977 -687.773)" fill="#404040"/>
      <path id="Path_47263" data-name="Path 47263" d="M510.93,700.21h.99v1.006h-.99Z" transform="translate(-501.847 -687.762)" fill="#404040"/>
      <path id="Path_47264" data-name="Path 47264" d="M261.94,439.666v6.851a.209.209,0,0,0,.216.2h7.438a2.574,2.574,0,0,1,.2-.7h-.6a.357.357,0,0,1-.357-.357v-1.72a.357.357,0,0,1,.357-.357h1.7a.357.357,0,0,1,.357.357v.707a2.524,2.524,0,0,1,.525-.133v-4.848Zm2.943,6a.357.357,0,0,1-.357.357h-1.7a.357.357,0,0,1-.357-.357v-1.72a.357.357,0,0,1,.357-.357h1.7a.357.357,0,0,1,.357.357Zm0-3.218a.357.357,0,0,1-.357.357h-1.7a.357.357,0,0,1-.357-.357v-1.721a.357.357,0,0,1,.357-.357h1.7a.357.357,0,0,1,.357.357Zm3.188,3.218a.357.357,0,0,1-.357.357h-1.7a.357.357,0,0,1-.357-.357v-1.72a.357.357,0,0,1,.357-.357h1.7a.357.357,0,0,1,.357.357Zm0-3.218a.357.357,0,0,1-.357.357h-1.7a.357.357,0,0,1-.357-.357v-1.721a.357.357,0,0,1,.357-.357h1.7a.357.357,0,0,1,.357.357Zm3.188,0a.357.357,0,0,1-.357.357h-1.7a.357.357,0,0,1-.357-.357v-1.721a.357.357,0,0,1,.357-.357h1.7a.357.357,0,0,1,.357.357Z" transform="translate(-257.283 -431.849)" fill="#404040"/>
      <path id="Path_47265" data-name="Path 47265" d="M690.24,519.2h.99v1.006h-.99Z" transform="translate(-677.969 -509.97)" fill="#404040"/>
      <path id="Path_47266" data-name="Path 47266" d="M510.93,519.2h.99v1.006h-.99Z" transform="translate(-501.847 -509.97)" fill="#404040"/>
      <path id="Path_47267" data-name="Path 47267" d="M733.13,751.2a1.871,1.871,0,1,0,1.85,1.871A1.862,1.862,0,0,0,733.13,751.2Zm.357,1.871a.356.356,0,0,1-.083.229l-.586.7a.357.357,0,0,1-.548-.458l.5-.6v-.906a.357.357,0,1,1,.714,0Z" transform="translate(-718.279 -737.845)" fill="#404040"/>
    </g>
  </g>
</svg>
