<svg xmlns="http://www.w3.org/2000/svg" width="24" height="24" viewBox="0 0 32 32">
  <g id="health-record-icn-32" transform="translate(4537 -20426)">
    <rect id="Rectangle_12079" data-name="Rectangle 12079" width="32" height="32" rx="4" transform="translate(-4537 20426)" fill="none"/>
    <g id="health-record-icn" transform="translate(-4551.808 20415.75)">
      <path id="Path_52378" data-name="Path 52378" d="M41.14,53.086H30.3a.619.619,0,1,0,0,1.238H41.14a.619.619,0,1,0,0-1.238Z" transform="translate(-5.736 -25.745)" fill="#080808"/>
      <path id="Path_52379" data-name="Path 52379" d="M41.14,63.457H30.3a.619.619,0,1,0,0,1.238H41.14a.619.619,0,1,0,0-1.238Z" transform="translate(-5.736 -32.448)" fill="#080808"/>
      <path id="Path_52380" data-name="Path 52380" d="M41.14,74.082H30.3a.619.619,0,1,0,0,1.238H41.14a.619.619,0,1,0,0-1.238Z" transform="translate(-5.736 -39.314)" fill="#080808"/>
      <path id="Path_52381" data-name="Path 52381" d="M39.615,34.747a3.907,3.907,0,1,0-3.908-3.906A3.911,3.911,0,0,0,39.615,34.747Zm0-6.576a2.67,2.67,0,1,1-2.67,2.67,2.673,2.673,0,0,1,2.67-2.67Z" transform="translate(-9.629 -8.843)" fill="#080808"/>
      <path id="Path_52382" data-name="Path 52382" d="M42.111,34.318v.964a.619.619,0,1,0,1.238,0v-.964h.964a.619.619,0,0,0,0-1.238h-.964v-.964a.619.619,0,1,0-1.238,0v.964h-.964a.619.619,0,1,0,0,1.238Z" transform="translate(-12.744 -11.792)" fill="#080808"/>
      <path id="Path_52383" data-name="Path 52383" d="M38.68,13.25h-12.8a2.783,2.783,0,0,0-2.734,2.287,2.784,2.784,0,0,0-2.341,2.745V36.47a2.783,2.783,0,0,0,2.78,2.78h12.8a2.783,2.783,0,0,0,2.734-2.287,2.784,2.784,0,0,0,2.341-2.745V16.03a2.783,2.783,0,0,0-2.78-2.78Zm-.753,23.219a1.544,1.544,0,0,1-1.542,1.542h-12.8a1.544,1.544,0,0,1-1.542-1.542V18.281a1.544,1.544,0,0,1,1.542-1.542h12.8a1.544,1.544,0,0,1,1.542,1.542Zm2.3-2.251a1.544,1.544,0,0,1-1.058,1.463v-17.4a2.782,2.782,0,0,0-2.78-2.78H24.436a1.545,1.545,0,0,1,1.448-1.013h12.8a1.544,1.544,0,0,1,1.542,1.542Z" fill="#080808"/>
    </g>
  </g>
</svg>