<svg xmlns="http://www.w3.org/2000/svg" width="16" height="16" viewBox="0 0 16 16">
  <g id="lab_cart_icon_16px" transform="translate(-180.258 -387.452)">
    <rect id="Rectangle_3299" data-name="Rectangle 3299" width="16" height="16" rx="3" transform="translate(180.258 387.452)" fill="none"/>
    <g id="Diagnostics" transform="translate(-3.761 345.436)">
      <path id="Path_42896" data-name="Path 42896" d="M674.96,527.144a.229.229,0,0,0,.325,0l1.831-1.831a.23.23,0,1,0-.325-.325l-1.831,1.831a.229.229,0,0,0,0,.325Z" transform="translate(-481.753 -475.857)" fill="#080808"/>
      <path id="Path_42896_-_Outline" data-name="Path 42896 - Outline" d="M674.918,527.178a.4.4,0,0,1-.283-.685l1.83-1.83a.4.4,0,0,1,.67.18.4.4,0,0,1-.1.387L675.2,527.06A.4.4,0,0,1,674.918,527.178Zm1.831-2.291a.058.058,0,0,0-.042.017l-1.831,1.831a.058.058,0,0,0,0,.083.059.059,0,0,0,.083,0l1.831-1.831a.059.059,0,0,0-.026-.1Z" transform="translate(-481.548 -475.653)" fill="#080808"/>
      <path id="Path_42897" data-name="Path 42897" d="M197.4,50.708a.229.229,0,0,0-.325,0l-3.433,3.433a1.373,1.373,0,0,0-1.211-.753,1.348,1.348,0,0,0-.806.27,2.964,2.964,0,0,1-1.6-4.165h.114a1.586,1.586,0,0,0,.844-.245l.725.725a.71.71,0,0,0,.494.211.721.721,0,0,0,.5-.2l1.346-1.348a.709.709,0,0,0,0-1l-3.7-3.707a.707.707,0,0,0-1,0L189,43.594a.945.945,0,0,0-1.327,1.327l.343.341a.707.707,0,0,0,0,1l.776.773a1.567,1.567,0,0,0-.2.492,5.263,5.263,0,0,0,1.108,7.694H188.54a.687.687,0,0,0-.687.687v.687a.458.458,0,0,0,.458.458h8.238a.458.458,0,0,0,.458-.458v-.687a.687.687,0,0,0-.687-.687h-2.6a1.337,1.337,0,0,0,.08-.458,1.2,1.2,0,0,0,0-.128l3.6-3.6a.229.229,0,0,0,0-.325Zm-4.968,3.137a.915.915,0,0,1,.732,1.465l.183.137-.185-.137a.914.914,0,1,1-.73-1.465Zm-2.5-4.826A1.144,1.144,0,0,1,189,47.9a.919.919,0,0,1,.018-.19,1.1,1.1,0,0,1,.24-.535,1.144,1.144,0,1,1,1.613,1.6,1.121,1.121,0,0,1-.943.247Zm-1.6-3.412,1.352-1.352a.245.245,0,0,1,.348,0l3.7,3.7a.245.245,0,0,1,0,.348l-1.343,1.346a.249.249,0,0,1-.35,0l-.7-.687a1.6,1.6,0,0,0-2.259-2.259l-.748-.757a.245.245,0,0,1,0-.343Zm-.478,5.263a4.822,4.822,0,0,1,.746-2.563,1.588,1.588,0,0,0,.963,1.08,3.433,3.433,0,0,0,1.723,4.625,1.373,1.373,0,0,0-.229.748,1.4,1.4,0,0,0,.08.458h-.522a4.806,4.806,0,0,1-2.762-4.348Zm8.7,5.034v.687h-8.238v-.687a.229.229,0,0,1,.229-.229h2.867a1.373,1.373,0,0,0,2.041,0h2.872a.229.229,0,0,1,.229.229Z" transform="translate(-0.204 -0.204)" fill="#080808"/>
      <path id="Path_42897_-_Outline" data-name="Path 42897 - Outline" d="M196.345,57.016h-8.238a.628.628,0,0,1-.628-.628V55.7a.857.857,0,0,1,.857-.857h.647a5.434,5.434,0,0,1-.754-7.6,1.732,1.732,0,0,1,.144-.386l-.684-.682a.879.879,0,0,1-.109-1.106l-.241-.239-.006-.008a1.116,1.116,0,0,1,1.567-1.567l.011.01.248.234a.879.879,0,0,1,1.11.106l3.7,3.708a.88.88,0,0,1,0,1.236L192.617,49.9a.887.887,0,0,1-.62.252h0a.875.875,0,0,1-.613-.261l-.632-.632a1.754,1.754,0,0,1-.816.2h-.01a2.793,2.793,0,0,0,1.473,3.8,1.529,1.529,0,0,1,.829-.249h0a1.544,1.544,0,0,1,1.242.649l3.279-3.279a.4.4,0,0,1,.528-.034l.006,0,.032.032a.4.4,0,0,1,0,.567L193.772,54.5c0,.021,0,.042,0,.064a1.505,1.505,0,0,1-.027.283h2.374a.857.857,0,0,1,.857.857v.687a.628.628,0,0,1-.628.628Zm-8.009-1.831a.516.516,0,0,0-.516.516v.687a.287.287,0,0,0,.287.287h8.238a.287.287,0,0,0,.287-.287V55.7a.516.516,0,0,0-.516-.516h-2.841l.083-.229a1.162,1.162,0,0,0,.07-.4v-.009a1.031,1.031,0,0,0,0-.11l0-.076,3.649-3.653a.058.058,0,0,0,0-.081l0,0a.06.06,0,0,0-.082,0l-3.6,3.6-.106-.21a1.2,1.2,0,0,0-1.059-.659,1.185,1.185,0,0,0-.7.236l-.074.056-.087-.032a3.134,3.134,0,0,1-1.694-4.4l.048-.091h.217a1.413,1.413,0,0,0,.753-.218l.115-.073.822.822a.536.536,0,0,0,.375.161.547.547,0,0,0,.38-.155l1.345-1.347a.539.539,0,0,0,0-.755l-3.695-3.706a.536.536,0,0,0-.756,0l-.117.117-.472-.444a.774.774,0,0,0-1.088,1.084l.457.454-.121.121a.536.536,0,0,0,0,.757l.871.869-.071.115a1.394,1.394,0,0,0-.177.438l-.009.04-.026.032a5.093,5.093,0,0,0,1.072,7.444l.459.312Zm8.18,1.373h-8.58V55.7a.4.4,0,0,1,.4-.4h2.943l.051.057a1.2,1.2,0,0,0,1.787,0l.051-.057h2.948a.4.4,0,0,1,.4.4Zm-8.238-.341h7.9V55.7a.058.058,0,0,0-.017-.041.059.059,0,0,0-.041-.017h-2.8a1.544,1.544,0,0,1-2.188,0h-2.794a.058.058,0,0,0-.058.058Zm3.948-.577a1.085,1.085,0,1,1,0-2.169h0a1.086,1.086,0,0,1,1.086,1.086,1.093,1.093,0,0,1-.126.507l.057.043-.2.274-.06-.045a1.089,1.089,0,0,1-.653.3C192.293,55.638,192.259,55.64,192.226,55.64Zm0-1.828a.743.743,0,1,0,0,1.486c.023,0,.046,0,.069,0A.746.746,0,0,0,192.82,55l.03-.04a.75.75,0,0,0,.121-.407.745.745,0,0,0-.745-.745Zm-1.052,1.373h-.8l-.034-.016a4.965,4.965,0,0,1-2.088-7.157l.21-.333.1.381a1.421,1.421,0,0,0,.86.964l.172.067-.079.166a3.262,3.262,0,0,0,1.637,4.395l.186.081-.112.169a1.2,1.2,0,0,0-.2.654,1.231,1.231,0,0,0,.07.4Zm-.725-.341h.261a1.573,1.573,0,0,1-.028-.286h0a1.54,1.54,0,0,1,.159-.671,3.6,3.6,0,0,1-1.708-4.615,1.766,1.766,0,0,1-.77-.772,4.628,4.628,0,0,0,2.086,6.346Zm1.558-5.152a.418.418,0,0,1-.295-.121l-.812-.8.1-.121a1.431,1.431,0,0,0-2.018-2.018l-.121.1-.86-.871a.416.416,0,0,1-.081-.467l-.014-.022,1.448-1.448a.416.416,0,0,1,.59,0l3.7,3.7a.416.416,0,0,1,0,.59L192.3,49.57A.419.419,0,0,1,192.007,49.692Zm-.645-.944.589.58a.081.081,0,0,0,.111,0l1.342-1.345a.074.074,0,0,0,0-.106l-3.7-3.706a.076.076,0,0,0-.106,0l-1.352,1.352a.074.074,0,0,0,0,.1l.641.649a1.773,1.773,0,0,1,2.472,2.472Zm-1.425.259a1.3,1.3,0,0,1-.248-.024,1.315,1.315,0,0,1-1.067-1.291,1.084,1.084,0,0,1,.021-.22,1.274,1.274,0,0,1,.276-.613,1.316,1.316,0,0,1,.952-.5l.08,0a1.315,1.315,0,0,1,.824,2.34A1.293,1.293,0,0,1,189.938,49.007Zm.013-2.306-.059,0a.975.975,0,0,0-.705.369l0,0a.933.933,0,0,0-.2.453v.008a.748.748,0,0,0-.015.155.973.973,0,0,0,.79.957.95.95,0,0,0,.8-.209l0,0a.973.973,0,0,0-.608-1.734Z" transform="translate(0 0)" fill="#080808"/>
    </g>
  </g>
</svg>
