<svg xmlns="http://www.w3.org/2000/svg" width="16" height="16" viewBox="0 0 16 16">
  <g id="link_open_black_icon_16px" transform="translate(-180.258 -387.452)">
    <rect id="Rectangle_3299" data-name="Rectangle 3299" width="16" height="16" rx="3" transform="translate(180.258 387.452)" fill="none"></rect>
    <path id="Subtraction_86" data-name="Subtraction 86" d="M1427.6-7871h-4.565v-.946h4.565a1.457,1.457,0,0,0,1.027-.425,1.462,1.462,0,0,0,.427-1.027v-7.705a1.465,1.465,0,0,0-.427-1.029,1.464,1.464,0,0,0-1.027-.425h-7.7a1.455,1.455,0,0,0-1.452,1.454v7.3a.49.49,0,0,0,.3.477.5.5,0,0,0,.186.035.5.5,0,0,0,.366-.164l5.233-5.247h-3.184v-.944h4.323a.472.472,0,0,1,.473.471v4.325h-.944v-3.187l-5.243,5.269a1.443,1.443,0,0,1-1.025.432,1.423,1.423,0,0,1-.552-.111,1.43,1.43,0,0,1-.885-1.35v-7.3a2.4,2.4,0,0,1,2.4-2.4h7.7a2.4,2.4,0,0,1,2.4,2.4v7.705A2.4,2.4,0,0,1,1427.6-7871Z" fill="#1c3ffd" transform="translate(-1235.241 8272.951)" style=""></path>
  </g>
</svg>