<svg xmlns="http://www.w3.org/2000/svg" width="16" height="16" viewBox="0 0 16 16">
  <g id="mart_cart_icon_16px" transform="translate(-180.258 -387.452)">
    <rect id="Rectangle_3299" data-name="Rectangle 3299" width="16" height="16" rx="3" transform="translate(180.258 387.452)" fill="none"/>
    <g id="Pharmacy" transform="translate(172.582 379.684)">
      <path id="Path_42606" data-name="Path 42606" d="M3.588,11.977a3.1,3.1,0,0,1-.444.036,3.13,3.13,0,0,1-2.217-.926A3.074,3.074,0,0,1,0,8.887,3.148,3.148,0,0,1,.926,6.623l5.7-5.7A3.074,3.074,0,0,1,8.822,0a3.14,3.14,0,0,1,2.263.926,3.072,3.072,0,0,1,.925,2.2,3.149,3.149,0,0,1-.925,2.263L9.324,7.108c2.588.146,4.464,1.076,4.464,2.279V11.4c0,1.441-2.633,2.3-5.178,2.3C6.425,13.7,4.182,13.067,3.588,11.977Zm.419-.576c0,.816,1.891,1.726,4.6,1.726s4.6-.91,4.6-1.726v-.928a7.431,7.431,0,0,1-4.6,1.216,7.434,7.434,0,0,1-4.6-1.216ZM1.333,7.03A2.578,2.578,0,0,0,.576,8.882a2.5,2.5,0,0,0,.754,1.795,2.552,2.552,0,0,0,2.1.741c0-.006,0-.011,0-.017V9.387c0-1.028,1.369-1.855,3.381-2.167L3.978,4.386ZM7.05,11a11.071,11.071,0,0,0,1.559.108c2.712,0,4.6-.91,4.6-1.726,0-.548-.856-1.138-2.239-1.467ZM4.006,9.387c0,.555.876,1.153,2.289,1.479l3.928-3.088A11.023,11.023,0,0,0,8.61,7.661C5.9,7.661,4.006,8.571,4.006,9.387ZM7.032,1.331,4.385,3.979,7.537,7.131c.316-.027.646-.041.984-.043l2.16-2.106a2.578,2.578,0,0,0,.755-1.851,2.507,2.507,0,0,0-.754-1.794A2.624,2.624,0,0,0,8.827.577,2.508,2.508,0,0,0,7.032,1.331ZM1.732,7.4l.2-.2.407.407-.2.2a1.406,1.406,0,0,0,0,2.01l-.407.407A1.976,1.976,0,0,1,1.732,7.4Z" transform="translate(8.824 8.916)" fill="#080808"/>
      <path id="Union_155_-_Outline" data-name="Union 155 - Outline" d="M8.433,13.675c-1.96,0-4.357-.537-5.1-1.714a2.958,2.958,0,0,1-.365.025,3.274,3.274,0,0,1-2.323-.97A3.219,3.219,0,0,1-.325,8.71,3.3,3.3,0,0,1,.644,6.341l5.7-5.7a3.224,3.224,0,0,1,2.3-.97h.026a3.3,3.3,0,0,1,2.344.97,3.217,3.217,0,0,1,.968,2.3,3.3,3.3,0,0,1-.968,2.371L9.49,6.806a8.211,8.211,0,0,1,2.927.735c.866.438,1.343,1.031,1.343,1.67v2.013a1.492,1.492,0,0,1-.5,1.073,3.742,3.742,0,0,1-1.233.756A10.021,10.021,0,0,1,8.433,13.675ZM3.494,11.637l.05.091c.519.955,2.576,1.648,4.89,1.648a9.714,9.714,0,0,0,3.488-.6c.576-.233,1.542-.745,1.542-1.552V9.211c0-1.093-1.818-1.989-4.323-2.13L8.8,7.062l2.006-1.954a3,3,0,0,0,.879-2.156A2.921,2.921,0,0,0,10.806.857,3,3,0,0,0,8.671-.026H8.647A2.929,2.929,0,0,0,6.553.855l-5.7,5.7A3.007,3.007,0,0,0-.026,8.708a2.924,2.924,0,0,0,.881,2.1,2.978,2.978,0,0,0,2.114.884,2.926,2.926,0,0,0,.422-.035ZM8.433,13.1a9.269,9.269,0,0,1-3.374-.568c-.875-.355-1.377-.832-1.377-1.307V9.969l.247.214a4.583,4.583,0,0,0,1.788.851,10.642,10.642,0,0,0,2.716.328,10.652,10.652,0,0,0,2.718-.328,4.58,4.58,0,0,0,1.788-.851l.247-.215v1.255c0,.476-.5.952-1.378,1.307A9.277,9.277,0,0,1,8.433,13.1ZM3.98,10.6v.623c0,.338.456.732,1.191,1.031a8.968,8.968,0,0,0,3.262.546,8.975,8.975,0,0,0,3.263-.546c.735-.3,1.191-.693,1.191-1.031V10.6a8.167,8.167,0,0,1-4.454,1.06A8.164,8.164,0,0,1,3.98,10.6Zm-1.013.805a2.692,2.692,0,0,1-1.917-.8,2.651,2.651,0,0,1-.8-1.9,2.728,2.728,0,0,1,.8-1.959L3.8,4,6.949,7.146l-.291.045c-1.976.305-3.253,1.1-3.253,2.02v2.007a.222.222,0,0,1,0,.023v.133l-.132.015A2.717,2.717,0,0,1,2.967,11.407ZM3.8,4.42,1.263,6.959A2.431,2.431,0,0,0,.549,8.7a2.354,2.354,0,0,0,.71,1.687l0,0a2.4,2.4,0,0,0,1.706.714c.046,0,.093,0,.14,0V9.211a1.815,1.815,0,0,1,1.005-1.48,6.376,6.376,0,0,1,2.214-.787Zm4.632,6.666a11.032,11.032,0,0,1-1.581-.111l-.345-.05,4.254-3.344.07.017a5.349,5.349,0,0,1,1.687.673,1.227,1.227,0,0,1,.668.941c0,.476-.5.952-1.378,1.307A9.276,9.276,0,0,1,8.433,11.086Zm-1.186-.362a10.939,10.939,0,0,0,1.186.064,8.975,8.975,0,0,0,3.263-.546c.735-.3,1.191-.693,1.191-1.031,0-.387-.644-.957-2.055-1.306Zm-1.092.127-.07-.016a5.44,5.44,0,0,1-1.722-.674,1.237,1.237,0,0,1-.682-.95c0-.476.5-.953,1.377-1.308a9.259,9.259,0,0,1,3.374-.569,11.229,11.229,0,0,1,1.637.12l.343.051ZM8.433,7.633a8.958,8.958,0,0,0-3.262.547c-.735.3-1.191.694-1.191,1.031,0,.394.659.97,2.1,1.316L9.676,7.7A10.974,10.974,0,0,0,8.433,7.633ZM1.557,10.259l-.106-.106a2.124,2.124,0,0,1,0-3.036l.3-.307.619.619-.307.307a1.256,1.256,0,0,0,0,1.8l.106.105Zm.2-3.025-.094.095a1.823,1.823,0,0,0-.1,2.5l.2-.2a1.553,1.553,0,0,1,.1-2.111l.1-.1ZM7.3,7.108,4,3.8,6.75,1.049a2.65,2.65,0,0,1,1.9-.8h0a2.782,2.782,0,0,1,1.959.8,2.666,2.666,0,0,1,.8,1.9,2.725,2.725,0,0,1-.8,1.957l-2.2,2.148h-.06c-.349,0-.677.018-.973.043ZM4.419,3.8l3,3c.268-.021.558-.033.866-.037L10.4,4.7a2.427,2.427,0,0,0,.71-1.742,2.37,2.37,0,0,0-.709-1.69A2.486,2.486,0,0,0,8.65.551a2.354,2.354,0,0,0-1.688.708Z" transform="translate(9 9.093)" fill="#080808"/>
    </g>
  </g>
</svg>
