<svg xmlns="http://www.w3.org/2000/svg" width="26" height="26" viewBox="0 0 30.369 26.488">
<path d="M79.065,956.085a.975.975,0,0,0,0,1.95h3.9c1.62,4.005,3.21,8.026,4.816,12.046L86.3,973.637a.977.977,0,0,0,.9,1.35H103.5a1.028,1.028,0,0,0,.99-.975,1.017,1.017,0,0,0-.99-.975H88.666l.84-2.025,15.707-1.26a.99.99,0,0,0,.87-.75l1.95-8.476a1.01,1.01,0,0,0-.96-1.185H85.606l-1.065-2.655a1.013,1.013,0,0,0-.9-.615H79.065Zm7.321,5.206h19.5l-1.515,6.586-14.867,1.185Zm4.1,14.357a3.255,3.255,0,1,0,3.255,3.255A3.272,3.272,0,0,0,90.481,975.647Zm9.781,0a3.255,3.255,0,1,0,3.255,3.255A3.272,3.272,0,0,0,100.263,975.647Zm-9.781,1.95a1.305,1.305,0,1,1-1.305,1.305A1.287,1.287,0,0,1,90.481,977.6Zm9.781,0a1.305,1.305,0,1,1-1.305,1.305A1.306,1.306,0,0,1,100.263,977.6Z" transform="translate(-77.89 -955.87)" fill="#343a40" stroke="#fff" stroke-width="0.2"></path>
</svg>