<svg xmlns="http://www.w3.org/2000/svg" width="32" height="32" viewBox="0 0 44 44">
  <g id="Group_1420" data-name="Group 1420" transform="translate(-40 -18)">
    <path id="Path_2501" data-name="Path 2501" d="M8,0H36a8,8,0,0,1,8,8V36a8,8,0,0,1-8,8H8a8,8,0,0,1-8-8V8A8,8,0,0,1,8,0Z" transform="translate(40 18)" fill="#c4161c"/>
    <path id="Path_2502" data-name="Path 2502" d="M4,0H18.249a4,4,0,0,1,4,4V18.249a4,4,0,0,1-4,4H4a4,4,0,0,1-4-4V4A4,4,0,0,1,4,0Z" transform="translate(50.876 28.876)" fill="#fff"/>
    <path id="Union_9" data-name="Union 9" d="M6.795,18.124v-6.8H0V6.8h6.8V0h4.533V6.8h6.8v4.528h-6.8v6.8Z" transform="translate(52.937 30.937)" fill="#08ce73"/>
  </g>
</svg>
