<svg xmlns="http://www.w3.org/2000/svg" width="24" height="24" viewBox="0 0 24 24">
  <g id="membership-icn-24" transform="translate(-20 -289)">
    <rect id="Rectangle_9936" data-name="Rectangle 9936" width="24" height="24" transform="translate(20 289)" fill="none"/>
    <g id="membership-icn" transform="translate(21.333 293.667)">
      <path id="Subtraction_45" data-name="Subtraction 45" d="M19.475,15.14H1.858A1.853,1.853,0,0,1,0,13.295V1.845A1.853,1.853,0,0,1,1.858,0H19.475a1.865,1.865,0,0,1,1.858,1.868V13.295A1.853,1.853,0,0,1,19.475,15.14ZM1.858.744A1.116,1.116,0,0,0,.726,1.868v11.45a1.116,1.116,0,0,0,1.132,1.125H19.452a1.12,1.12,0,0,0,1.081-.783h.075V1.868A1.116,1.116,0,0,0,19.475.744Z" fill="#404040"/>
      <path id="Subtraction_46" data-name="Subtraction 46" d="M5.433,6.467a.121.121,0,0,1-.062-.018L3.8,5.506l-.007,0a.828.828,0,0,0-.409-.111.741.741,0,0,0-.4.118l-1.567.939a.1.1,0,0,1-.053.016.139.139,0,0,1-.1-.053.1.1,0,0,1-.022-.091l.449-1.771a.749.749,0,0,0-.243-.784L.05,2.577a.119.119,0,0,1-.044-.134A.094.094,0,0,1,.1,2.378l1.817-.157a.751.751,0,0,0,.671-.471l.7-1.683a.122.122,0,0,1,.218,0L4.2,1.746l0,0a.805.805,0,0,0,.641.468l1.831.158a.127.127,0,0,1,.1.092.114.114,0,0,1-.017.113L5.365,3.766l-.019.017a.81.81,0,0,0-.221.769l.424,1.763a.117.117,0,0,1-.02.1A.127.127,0,0,1,5.433,6.467Z" transform="translate(3.022 4.419)" fill="#404040"/>
      <path id="Subtraction_47" data-name="Subtraction 47" d="M5.438.725H.363A.368.368,0,0,1,0,.362.368.368,0,0,1,.363,0H5.416A.4.4,0,0,1,5.8.372.37.37,0,0,1,5.438.725Z" transform="translate(12.271 4.109)" fill="#404040"/>
      <path id="Subtraction_48" data-name="Subtraction 48" d="M5.438.724H.363A.367.367,0,0,1,0,.362.368.368,0,0,1,.363,0H5.416A.384.384,0,0,1,5.8.362.367.367,0,0,1,5.438.724Z" transform="translate(12.271 7.382)" fill="#404040"/>
      <path id="Subtraction_49" data-name="Subtraction 49" d="M5.438.725H.363A.368.368,0,0,1,0,.362.368.368,0,0,1,.363,0H5.416A.4.4,0,0,1,5.8.372.37.37,0,0,1,5.438.725Z" transform="translate(12.271 10.654)" fill="#404040"/>
    </g>
  </g>
</svg>
