<svg xmlns="http://www.w3.org/2000/svg" width="24" height="24" viewBox="0 0 24 24">
  <g id="orders-icn-24" transform="translate(-20 -29)">
    <g id="orders-icn" transform="translate(20 29)">
      <rect id="Rectangle_3285" data-name="Rectangle 3285" width="24" height="24" fill="none"/>
      <g id="noun-orders-list-4194762-404040" transform="translate(1.333 1.333)">
        <path id="Path_47220" data-name="Path 47220" d="M546.715,287.466a.291.291,0,0,1-.293-.293V275.911a.293.293,0,0,1,.172-.266l9.7-4.427a.292.292,0,0,1,.414.266v5.336a.293.293,0,1,1-.586,0v-4.882l-9.116,4.161v10.618l2.637-1.2a.293.293,0,0,1,.243.533l-3.051,1.392a.291.291,0,0,1-.121.028Z" transform="translate(-536.721 -266.764)" fill="#404040"/>
        <path id="Path_47221" data-name="Path 47221" d="M79.714,736.708a.283.283,0,0,1-.121-.026l-2.239-1.021a.293.293,0,0,1-.172-.266v-2.042a.3.3,0,0,1,.134-.247.291.291,0,0,1,.28-.019l2.239,1.022a.293.293,0,0,1,.172.266v2.042a.3.3,0,0,1-.134.247.313.313,0,0,1-.159.044Zm-1.946-1.5,1.654.755v-1.4l-1.654-.755Z" transform="translate(-75.932 -720.31)" fill="#404040"/>
        <path id="Path_47222" data-name="Path 47222" d="M17.736,287.363a.284.284,0,0,1-.121-.027l-9.7-4.427a.293.293,0,0,1-.172-.266V271.38a.3.3,0,0,1,.134-.247.291.291,0,0,1,.28-.02l9.7,4.427a.293.293,0,0,1,.172.266v11.262a.3.3,0,0,1-.134.247.29.29,0,0,1-.159.047Zm-9.409-4.908,9.116,4.16V276l-9.116-4.161Z" transform="translate(-7.742 -266.661)" fill="#404040"/>
        <path id="Path_47223" data-name="Path 47223" d="M206.594,506.262a.288.288,0,0,1-.121-.027l-2.149-.98a.293.293,0,0,1,.243-.533l2.149.981a.293.293,0,0,1-.121.559Z" transform="translate(-200.616 -496.061)" fill="#404040"/>
        <path id="Path_47224" data-name="Path 47224" d="M27.447,30.426a.288.288,0,0,1-.121-.027l-9.579-4.371L8.167,30.4a.293.293,0,0,1-.243-.533l9.7-4.427a.3.3,0,0,1,.243,0l9.7,4.427a.293.293,0,0,1-.123.559Z" transform="translate(-7.752 -25.413)" fill="#404040"/>
        <path id="Path_47225" data-name="Path 47225" d="M204.448,120.056a.293.293,0,0,1-.121-.559l9.7-4.427a.293.293,0,0,1,.243.533l-9.7,4.427a.289.289,0,0,1-.121.026Z" transform="translate(-200.618 -113.429)" fill="#404040"/>
        <path id="Path_47226" data-name="Path 47226" d="M323.745,174.406a.293.293,0,0,1-.114-.563l9.693-4.424a.293.293,0,0,1,.243.533l-9.7,4.428a.3.3,0,0,1-.121.026Z" transform="translate(-317.766 -166.798)" fill="#404040"/>
        <path id="Path_47227" data-name="Path 47227" d="M323.745,418.373a.293.293,0,0,1-.293-.293v-2.593a.293.293,0,1,1,.586,0v2.593a.293.293,0,0,1-.293.293Z" transform="translate(-317.766 -408.172)" fill="#404040"/>
        <path id="Path_47228" data-name="Path 47228" d="M204.445,363.943a.293.293,0,0,1-.293-.293v-2.593a.293.293,0,1,1,.586,0v2.593a.293.293,0,0,1-.293.293Z" transform="translate(-200.615 -354.723)" fill="#404040"/>
        <path id="Path_47229" data-name="Path 47229" d="M723.681,577.446h-7.049a.766.766,0,0,1-.766-.766v-8.552a.766.766,0,0,1,.766-.766h1.631a.293.293,0,0,1,0,.586h-1.631a.18.18,0,0,0-.18.18v8.552a.18.18,0,0,0,.18.18h7.049a.18.18,0,0,0,.18-.18v-8.552a.18.18,0,0,0-.18-.18H722.05a.293.293,0,0,1,0-.586h1.631a.766.766,0,0,1,.766.766v8.552a.766.766,0,0,1-.766.766Z" transform="translate(-703.113 -557.599)" fill="#404040"/>
        <path id="Path_47230" data-name="Path 47230" d="M889.3,492.013a.293.293,0,0,1-.293-.293v-.506a.022.022,0,0,0-.022-.022h-1.193a.022.022,0,0,0-.022.022v.506a.293.293,0,1,1-.586,0v-.506a.609.609,0,0,1,.608-.608h1.193a.609.609,0,0,1,.608.608v.506A.293.293,0,0,1,889.3,492.013Z" transform="translate(-871.341 -482.226)" fill="#404040"/>
        <path id="Path_47231" data-name="Path 47231" d="M836.155,538.04h-2.672a.852.852,0,0,1-.85-.851v-.208a.852.852,0,0,1,.85-.851h2.672a.852.852,0,0,1,.851.851v.208A.852.852,0,0,1,836.155,538.04Zm-2.672-1.322a.265.265,0,0,0-.265.265v.208a.265.265,0,0,0,.265.265h2.672a.265.265,0,0,0,.265-.265v-.208a.265.265,0,0,0-.265-.265Z" transform="translate(-817.777 -526.93)" fill="#404040"/>
        <path id="Path_47232" data-name="Path 47232" d="M892.484,742.88h-3.4a.293.293,0,0,1,0-.586h3.4a.293.293,0,0,1,0,.586Z" transform="translate(-872.925 -729.379)" fill="#404040"/>
        <path id="Path_47233" data-name="Path 47233" d="M892.484,831.53h-3.4a.293.293,0,0,1,0-.586h3.4a.293.293,0,0,1,0,.586Z" transform="translate(-872.925 -816.432)" fill="#404040"/>
        <path id="Path_47234" data-name="Path 47234" d="M892.484,920.17h-3.4a.293.293,0,0,1,0-.586h3.4a.293.293,0,0,1,0,.586Z" transform="translate(-872.925 -903.475)" fill="#404040"/>
        <path id="Path_47235" data-name="Path 47235" d="M814.923,739.393a.351.351,0,1,1-.351-.351.352.352,0,0,1,.351.351" transform="translate(-799.696 -726.186)" fill="#404040"/>
        <path id="Path_47236" data-name="Path 47236" d="M814.923,828.044a.351.351,0,1,1-.351-.351.351.351,0,0,1,.351.351" transform="translate(-799.696 -813.239)" fill="#404040"/>
        <path id="Path_47237" data-name="Path 47237" d="M814.923,916.683a.351.351,0,1,1-.351-.351.351.351,0,0,1,.351.351" transform="translate(-799.696 -900.282)" fill="#404040"/>
      </g>
    </g>
  </g>
</svg>
