<svg xmlns="http://www.w3.org/2000/svg" width="24" height="24" viewBox="0 0 32 32">
  <g id="order-history-icn-32" transform="translate(4537 -20426)">
    <rect id="Rectangle_12079" data-name="Rectangle 12079" width="32" height="32" rx="4" transform="translate(-4537 20426)" fill="none"/>
    <g id="order-history-icn" transform="translate(-4538.75 20424.758)">
      <path id="Subtraction_154" data-name="Subtraction 154" d="M-.142,7.5v9.056a.71.71,0,0,0,1.421,0V7.907l9.536,5.5v11.01L9.749,23.8a.711.711,0,0,0-.71,1.233l1.421.82a2.131,2.131,0,0,0,2.131,0l9.536-5.5A2.133,2.133,0,0,0,23.191,18.5V7.5a2.133,2.133,0,0,0-1.065-1.847L12.59.144a2.131,2.131,0,0,0-2.131,0L.923,5.649A2.133,2.133,0,0,0-.142,7.5ZM21.77,18.505a.712.712,0,0,1-.355.615l-9.18,5.3V13.409l9.536-5.5ZM11.169,1.376a.712.712,0,0,1,.71,0l9.18,5.3L16.979,9.029l-9.536-5.5ZM6.023,4.346l9.536,5.5-4.034,2.33-9.536-5.5Z" transform="translate(6.798 4.243)" fill="#080808"/>
      <path id="Path_52377" data-name="Path 52377" d="M60.959,51.485a1.07,1.07,0,0,0,1.065,0l3.309-1.907a1.067,1.067,0,0,0,.533-.923V46.613a1.065,1.065,0,0,0-1.6-.923L60.959,47.6a1.067,1.067,0,0,0-.533.923v2.042A1.066,1.066,0,0,0,60.959,51.485Zm.888-2.759,2.6-1.5V48.45l-2.6,1.5Z" transform="translate(-39.142 -29.569)"/>
      <path id="history" d="M14785.261-4848.313a4.77,4.77,0,0,1-1.678-2.61.524.524,0,0,1,.066-.4.521.521,0,0,1,.33-.241.462.462,0,0,1,.123-.015.533.533,0,0,1,.52.409,3.711,3.711,0,0,0,3.635,2.833,3.707,3.707,0,0,0,3.73-3.675,3.708,3.708,0,0,0-3.73-3.679,3.74,3.74,0,0,0-3.289,1.923l.151-.078a.547.547,0,0,1,.412-.045.519.519,0,0,1,.319.268.524.524,0,0,1,.03.416.53.53,0,0,1-.278.308l-1.326.68a.553.553,0,0,1-.244.06.531.531,0,0,1-.465-.271l-.746-1.336a.533.533,0,0,1,0-.527.532.532,0,0,1,.453-.271h.012a.528.528,0,0,1,.471.282l.152.268a4.779,4.779,0,0,1,4.352-2.74,4.776,4.776,0,0,1,4.8,4.745,4.776,4.776,0,0,1-4.8,4.741A4.859,4.859,0,0,1,14785.261-4848.313Zm4.076-2.2-1.358-1.084a.539.539,0,0,1-.2-.416v-2.176a.529.529,0,0,1,.152-.378.512.512,0,0,1,.375-.16h0a.537.537,0,0,1,.379.156.524.524,0,0,1,.155.386v1.916l1.159.924a.524.524,0,0,1,.2.356.541.541,0,0,1-.115.394.522.522,0,0,1-.356.2c-.019,0-.041,0-.06,0A.538.538,0,0,1,14789.337-4850.515Z" transform="translate(-14777.124 4877.498)"/>
    </g>
  </g>
</svg>