<svg xmlns="http://www.w3.org/2000/svg" width="24" height="24" viewBox="0 0 32 32">
  <g id="points-wallet-icn-32" transform="translate(4537 -20426)">
    <rect id="Rectangle_12079" data-name="Rectangle 12079" width="32" height="32" rx="4" transform="translate(-4537 20426)" fill="none"/>
    <g id="points-wallet" transform="translate(-4538.39 20425.012)">
      <path id="Path_53541" data-name="Path 53541" d="M7.811,4.989H25.329a1.345,1.345,0,0,1,0,2.69l-16.977,0a.136.136,0,1,0,0,.272l19.526,0h0a1.513,1.513,0,0,1,1.511,1.512V24.39A1.514,1.514,0,0,1,27.878,25.9H21.255A7.723,7.723,0,0,1,18.7,28.227a7.626,7.626,0,0,1-7.468,0A7.716,7.716,0,0,1,8.684,25.9H6.9A1.514,1.514,0,0,1,5.39,24.39V7.41A2.424,2.424,0,0,1,7.811,4.989ZM27.878,9.032l-19.526,0a1.212,1.212,0,1,1,0-2.424l16.977,0a.269.269,0,1,0,0-.538H7.811A1.346,1.346,0,0,0,6.466,7.41V24.39a.437.437,0,0,0,.436.436H9.267l.159.249a6.635,6.635,0,0,0,2.336,2.215,6.55,6.55,0,0,0,6.413,0,6.642,6.642,0,0,0,2.337-2.215l.159-.249h7.207a.437.437,0,0,0,.436-.436V9.468a.436.436,0,0,0-.435-.436Zm-5.791,1.892H27.9v4.687H22.088a2.344,2.344,0,0,1,0-4.687ZM26.824,12H22.6a1.313,1.313,0,0,1,0,2.535h4.216Zm-4.974,2.513a1.313,1.313,0,0,1,.007-2.492,1.268,1.268,0,0,0-.007,2.492Zm.416-1.009a.236.236,0,1,0-.236-.236A.237.237,0,0,0,22.266,13.505Zm-7.3,1.759a6.3,6.3,0,1,1,0,12.6h0a6.3,6.3,0,1,1,0-12.6Zm0,11.519a5.222,5.222,0,1,0-5.182-5.872,5.287,5.287,0,0,0-.04.65,5.228,5.228,0,0,0,5.222,5.221Z" fill="#080808"/>
      <path id="Path_53539" data-name="Path 53539" d="M34.927,48.551a2.074,2.074,0,0,1,.115,4.135l-.115,0h-.77V54.85H32.379v-6.3Zm0,.645h-1.9V54.2h.488V52.043h1.415a1.431,1.431,0,0,0,.1-2.843Zm-.095.479a.962.962,0,0,1,.086,1.909l-.086,0H33.512V49.675Zm0,.645h-.676v.622h.676c.311,0,.329-.555.051-.616Z" transform="translate(-19.509 -30)"/>
    </g>
  </g>
</svg>