<svg xmlns="http://www.w3.org/2000/svg" width="24" height="24" viewBox="0 0 24 24">
  <g id="prescriptions-icn-24" transform="translate(-20 -71)">
    <rect id="Rectangle_3285" data-name="Rectangle 3285" width="24" height="24" transform="translate(20 71)" fill="none"/>
    <g id="prescription-icn" transform="translate(21.333 72.333)">
      <path id="Path_47238" data-name="Path 47238" d="M353.171,881.215a.429.429,0,1,1-.429-.429.429.429,0,0,1,.429.429" transform="translate(-346.684 -864.415)" fill="#404040"/>
      <path id="Path_47239" data-name="Path 47239" d="M353.171,946.835a.429.429,0,1,1-.429-.429.429.429,0,0,1,.429.429" transform="translate(-346.684 -928.701)" fill="#404040"/>
      <path id="Path_47240" data-name="Path 47240" d="M370.02,78.9l-2.9-3.516a1.033,1.033,0,0,0-.8-.38H355.667a1.069,1.069,0,0,0-1.049,1.085v3.291a.381.381,0,0,0,.763,0V76.092a.307.307,0,0,1,.286-.323H365.76v3.15a1.148,1.148,0,0,0,1.147,1.146h2.6v15.19a.307.307,0,0,1-.286.323H355.667a.307.307,0,0,1-.286-.323v-.749a.381.381,0,0,0-.763,0v.749a1.069,1.069,0,0,0,1.049,1.085h13.556a1.069,1.069,0,0,0,1.049-1.085V79.609a1.109,1.109,0,0,0-.251-.705Zm-3.5.016V75.866l0,.005,2.834,3.431h-2.455a.384.384,0,0,1-.384-.384Z" transform="translate(-348.938 -75.007)" fill="#404040" stroke="#fff" stroke-width="0.2"/>
      <path id="Path_47241" data-name="Path 47241" d="M253.619,500.04h-.538v1.534h.538a.767.767,0,1,0,0-1.534Z" transform="translate(-249.471 -491.404)" fill="#404040"/>
      <path id="Path_47242" data-name="Path 47242" d="M85.905,352.023a5.153,5.153,0,1,0-5.153,5.143A5.154,5.154,0,0,0,85.905,352.023Zm-2.981,2.124a.381.381,0,1,1-.5.576l-.921-.8-.921.8a.381.381,0,1,1-.5-.576l.838-.725-1.311-1.134h-.4v1.134a.382.382,0,0,1-.763,0v-3.811a.381.381,0,0,1,.382-.381h.92a1.528,1.528,0,0,1,.778,2.845l.974.843.921-.8a.381.381,0,1,1,.5.576l-.838.725.838.725Z" transform="translate(-75.6 -341.356)" fill="#404040"/>
      <path id="Path_47243" data-name="Path 47243" d="M629.262,646.8H636.5a.381.381,0,1,0,0-.762h-7.238a.381.381,0,1,0,0,.762Z" transform="translate(-617.633 -634.438)" fill="#404040"/>
      <path id="Path_47244" data-name="Path 47244" d="M629.262,780.222H636.5a.381.381,0,1,0,0-.762h-7.238a.381.381,0,1,0,0,.762Z" transform="translate(-617.633 -765.147)" fill="#404040"/>
      <path id="Path_47245" data-name="Path 47245" d="M629.262,905.952H636.5a.381.381,0,1,0,0-.762h-7.238a.381.381,0,1,0,0,.762Z" transform="translate(-617.633 -888.323)" fill="#404040"/>
      <path id="Path_47246" data-name="Path 47246" d="M629.928,422.814h5.9a1.05,1.05,0,0,0,1.05-1.048v-.678a1.05,1.05,0,0,0-1.05-1.048h-5.9a1.05,1.05,0,0,0-1.05,1.048v.678A1.05,1.05,0,0,0,629.928,422.814Zm-.286-1.726a.286.286,0,0,1,.286-.286h5.9a.286.286,0,0,1,.286.286v.678a.286.286,0,0,1-.286.286h-5.9a.286.286,0,0,1-.286-.286Z" transform="translate(-617.631 -413.031)" fill="#404040"/>
    </g>
  </g>
</svg>
