<svg xmlns="http://www.w3.org/2000/svg" width="24" height="24" viewBox="0 0 24 24">
  <g id="refill-orders-icn-24" transform="translate(-589 -426)">
    <rect id="Rectangle_9938" data-name="Rectangle 9938" width="24" height="24" transform="translate(589 426)" fill="none"/>
    <g id="refill-orders-icn" transform="translate(590.35 427.35)">
      <g id="Group_28475" data-name="Group 28475" transform="translate(12.52 9.258)">
        <path id="Path_47300" data-name="Path 47300" d="M6.921,3.939a.289.289,0,0,0-.289.289A3.027,3.027,0,1,1,3.6,1.2.289.289,0,0,0,3.774.677L2.913.055a.289.289,0,0,0-.338.468l.254.184A3.605,3.605,0,1,0,7.21,4.228a.289.289,0,0,0-.289-.289Z" transform="translate(0 0)" fill="#404040"/>
        <path id="Path_47301" data-name="Path 47301" d="M.025.43A2.973,2.973,0,0,1,.149.781a.311.311,0,0,0,.3.225.309.309,0,0,0,.3-.394A3.626,3.626,0,0,0,.594.187.316.316,0,0,0,.188.024.31.31,0,0,0,.025.43Z" transform="translate(6.387 2.614)" fill="#404040"/>
        <path id="Path_47302" data-name="Path 47302" d="M.389.821A.309.309,0,0,0,.853.412,3.641,3.641,0,0,0,.513.073.318.318,0,0,0,.076.1.31.31,0,0,0,.105.539,2.991,2.991,0,0,1,.389.821Z" transform="translate(5.514 1.416)" fill="#404040"/>
        <path id="Path_47303" data-name="Path 47303" d="M.226.607A3.127,3.127,0,0,1,.578.729.305.305,0,0,0,.7.754.309.309,0,0,0,.818.159,3.6,3.6,0,0,0,.393.011.314.314,0,0,0,.011.226.31.31,0,0,0,.226.607Z" transform="translate(4.23 0.72)" fill="#404040"/>
        <path id="Path_47304" data-name="Path 47304" d="M.289,0A.289.289,0,0,0,0,.289V2.256a.244.244,0,0,0,.005.025.3.3,0,0,0,.017.085.286.286,0,0,0,.045.069.225.225,0,0,0,.016.024l.77.78a.289.289,0,0,0,.411-.406l-.686-.7V.288A.289.289,0,0,0,.289,0Z" transform="translate(3.316 2.052)" fill="#404040"/>
      </g>
      <g id="refill-orders-icn-2" data-name="refill-orders-icn" transform="translate(0 0)">
        <path id="Path_47311" data-name="Path 47311" d="M584.049,278.833a.311.311,0,0,1-.167-.048.307.307,0,0,1-.14-.259V266.346a.307.307,0,0,1,.18-.279l10.494-4.788a.306.306,0,0,1,.434.279v12.179a.307.307,0,0,1-.18.279L584.176,278.8A.3.3,0,0,1,584.049,278.833Zm.307-12.289v11.5l9.88-4.507v-11.5Z" transform="translate(-573.248 -256.464)" fill="#404040"/>
        <path id="Path_47312" data-name="Path 47312" d="M102.362,741.707a.3.3,0,0,1-.127-.028l-2.423-1.105a.307.307,0,0,1-.18-.279v-2.207a.309.309,0,0,1,.14-.259.3.3,0,0,1,.294-.02l2.423,1.105a.307.307,0,0,1,.18.279V741.4a.309.309,0,0,1-.14.259.315.315,0,0,1-.167.048Zm-2.115-1.61,1.808.825V739.39l-1.808-.824Z" transform="translate(-98.28 -723.994)" fill="#404040"/>
        <path id="Path_47313" data-name="Path 47313" d="M38.823,278.887a.3.3,0,0,1-.127-.028L28.2,274.071a.307.307,0,0,1-.18-.279V261.614a.309.309,0,0,1,.14-.259.3.3,0,0,1,.294-.02l10.494,4.788a.307.307,0,0,1,.18.279V278.58a.305.305,0,0,1-.307.307Zm-10.187-5.292,9.88,4.507V266.6l-9.88-4.507Z" transform="translate(-28.022 -256.519)" fill="#404040"/>
        <path id="Path_47314" data-name="Path 47314" d="M233.264,503.886a.3.3,0,0,1-.127-.028l-2.325-1.06a.307.307,0,1,1,.254-.558l2.325,1.06a.307.307,0,0,1-.127.586Z" transform="translate(-226.807 -492.875)" fill="#404040"/>
        <path id="Path_47315" data-name="Path 47315" d="M49.307,13.155a.3.3,0,0,1-.127-.028L38.813,8.4,28.447,13.127a.307.307,0,1,1-.254-.558L38.686,7.781a.309.309,0,0,1,.254,0l10.494,4.788a.307.307,0,0,1-.127.586Z" transform="translate(-28.013 -7.753)" fill="#404040"/>
        <path id="Path_47316" data-name="Path 47316" d="M230.942,105.585a.307.307,0,0,1-.127-.586l10.494-4.788a.307.307,0,0,1,.254.558l-10.494,4.788a.3.3,0,0,1-.127.028Z" transform="translate(-226.809 -98.438)" fill="#404040"/>
        <path id="Path_47317" data-name="Path 47317" d="M354.039,161.714a.308.308,0,0,1-.12-.591l10.487-4.784a.307.307,0,0,1,.254.558l-10.494,4.788a.293.293,0,0,1-.127.028Z" transform="translate(-347.581 -153.507)" fill="#404040"/>
        <path id="Path_47318" data-name="Path 47318" d="M354.039,413.272a.307.307,0,0,1-.307-.307v-2.8a.307.307,0,1,1,.614,0v2.8a.307.307,0,0,1-.307.307Z" transform="translate(-347.581 -402.261)" fill="#404040"/>
        <path id="Path_47319" data-name="Path 47319" d="M230.939,357.15a.307.307,0,0,1-.307-.307v-2.8a.307.307,0,0,1,.614,0v2.8A.307.307,0,0,1,230.939,357.15Z" transform="translate(-226.806 -347.201)" fill="#404040"/>
      </g>
    </g>
  </g>
</svg>
