<svg xmlns="http://www.w3.org/2000/svg" width="24" height="24" viewBox="0 0 24 24">
  <g id="saved-workspace-icn-24" transform="translate(-20 -431)">
    <rect id="Rectangle_9937" data-name="Rectangle 9937" width="24" height="24" transform="translate(20 431)" fill="none"/>
    <path id="Subtraction_53" data-name="Subtraction 53" d="M17.569,19.5h-6.1a1.929,1.929,0,0,1-1.931-1.931V14.6a1.933,1.933,0,0,1,1.931-1.93h6.1A1.93,1.93,0,0,1,19.5,14.6v2.97A1.931,1.931,0,0,1,17.569,19.5Zm-6.1-6.1a1.2,1.2,0,0,0-1.2,1.2v2.97a1.2,1.2,0,0,0,1.2,1.2h6.1a1.2,1.2,0,0,0,1.2-1.2V14.6a1.2,1.2,0,0,0-1.2-1.2ZM5.943,19.5H1.931A1.931,1.931,0,0,1,0,17.569v-7.14A1.933,1.933,0,0,1,1.931,8.5H5.943a1.928,1.928,0,0,1,1.931,1.931v7.14A1.929,1.929,0,0,1,5.943,19.5ZM1.931,9.232a1.2,1.2,0,0,0-1.2,1.2v7.14a1.2,1.2,0,0,0,1.2,1.2H5.943a1.2,1.2,0,0,0,1.2-1.2v-7.14a1.2,1.2,0,0,0-1.2-1.2ZM17.569,11h-6.1a1.927,1.927,0,0,1-1.931-1.93V1.93A1.933,1.933,0,0,1,11.472,0h6.1A1.93,1.93,0,0,1,19.5,1.93v7.14A1.929,1.929,0,0,1,17.569,11ZM11.472.733a1.2,1.2,0,0,0-1.2,1.2v7.14a1.2,1.2,0,0,0,1.2,1.2h6.1a1.2,1.2,0,0,0,1.2-1.2V1.93a1.2,1.2,0,0,0-1.2-1.2Zm-5.529,6.1H1.931A1.929,1.929,0,0,1,0,4.9V1.93A1.933,1.933,0,0,1,1.931,0H5.943A1.93,1.93,0,0,1,7.874,1.93V4.9a1.928,1.928,0,0,1-1.931,1.93ZM1.931.733a1.2,1.2,0,0,0-1.2,1.2V4.9a1.2,1.2,0,0,0,1.2,1.2H5.943a1.2,1.2,0,0,0,1.2-1.2V1.93a1.2,1.2,0,0,0-1.2-1.2Z" transform="translate(22 433)" fill="#404040"/>
  </g>
</svg>
