<svg xmlns="http://www.w3.org/2000/svg" width="24" height="24" viewBox="0 0 24 24">
  <g id="shutter-app-icn-24" transform="translate(-20 -431)">
    <rect id="Rectangle_9937" data-name="Rectangle 9937" width="24" height="24" transform="translate(20 431)" fill="none"/>
    <g id="np_capture_5703923_000000" transform="translate(21.333 433)">
      <path id="Subtraction_64" data-name="Subtraction 64" d="M17.8,20.831a.567.567,0,0,1-.57-.569V18.371H6.314a3.859,3.859,0,0,1-3.853-3.853V3.6H.57a.57.57,0,1,1,0-1.141H2.461V.569A.571.571,0,1,1,3.6.569V2.46H14.518a3.86,3.86,0,0,1,3.853,3.853V17.229h1.891a.571.571,0,0,1,0,1.141H18.371v1.891a.568.568,0,0,1-.571.569ZM13.693,12.39a1.071,1.071,0,0,0-.723.281l-1.021.93,3.628,3.628H17.23V15.276l-2.814-2.6A1.069,1.069,0,0,0,13.693,12.39ZM7,10.71a1.073,1.073,0,0,0-.657.225L3.6,13.066v1.452a2.712,2.712,0,0,0,2.711,2.711h7.648L7.756,11.022a1.07,1.07,0,0,0-.691-.311Zm6.692.538H13.7a2.192,2.192,0,0,1,1.494.591l2.04,1.883V6.313A2.712,2.712,0,0,0,14.519,3.6H3.6v8.017l2.038-1.58A2.225,2.225,0,0,1,7,9.572c.038,0,.08,0,.136,0a2.207,2.207,0,0,1,1.426.643L11.139,12.8,12.2,11.83A2.191,2.191,0,0,1,13.691,11.248Z" transform="translate(0)" fill="#404040"/>
      <path id="Subtraction_65" data-name="Subtraction 65" d="M2.212,4.423A2.194,2.194,0,0,1,.648,3.775,2.211,2.211,0,1,1,3.775.648,2.211,2.211,0,0,1,2.212,4.423Zm0-3.283a1.071,1.071,0,1,0,.757.314A1.076,1.076,0,0,0,2.21,1.14Z" transform="translate(11.487 4.923)" fill="#404040"/>
    </g>
  </g>
</svg>
