<svg xmlns="http://www.w3.org/2000/svg" width="24" height="24" viewBox="0 0 24 24">
  <g id="store-locator-icn-24" transform="translate(-20 -431)">
    <rect id="Rectangle_9937" data-name="Rectangle 9937" width="24" height="24" transform="translate(20 431)" fill="none"/>
    <g id="store-location-icn" transform="translate(21.333 433)">
      <path id="Path_47280" data-name="Path 47280" d="M35.682,139.642a2.037,2.037,0,0,0,1.154-1.831v-1.533c0-.007,0-.01,0-.017a.194.194,0,0,0-.013-.063c0-.01-.007-.017-.01-.027a.187.187,0,0,0-.033-.05c-.007-.007-.01-.013-.017-.02l-.007-.007L34,133.661c0-.007,0-.017,0-.023V131.7a.244.244,0,0,0-.242-.242H21.627a.244.244,0,0,0-.242.242v1.861l-2.866,2.532-.007.007c-.007.007-.01.013-.017.02a.216.216,0,0,0-.033.05c0,.01-.007.017-.01.027a.423.423,0,0,0-.013.063c0,.007,0,.01,0,.017v1.533a2.031,2.031,0,0,0,1.154,1.831v1.072h-.023a3.383,3.383,0,0,0-3.377,3.381c0,1.473,2.043,4.167,2.863,5.186H15.746a.242.242,0,0,0,0,.484H36.481a.242.242,0,0,0,0-.484h-.8Zm.667-1.831a1.549,1.549,0,1,1-3.1,0v-1.291h3.1v1.291Zm-3.583,0a1.549,1.549,0,1,1-3.1,0v-1.291h3.1v1.291Zm-3.583,0a1.549,1.549,0,1,1-3.1,0v-1.291h3.1v1.291Zm-3.583,0a1.549,1.549,0,1,1-3.1,0v-1.291h3.1v1.291Zm6.95-1.778H29.622l-.488-2.157h1.954Zm-5.915-2.153h2l.488,2.157H26.145Zm-2.451,0h1.954l-.488,2.157H22.722Zm8.953,2.153-1.463-2.157H33.51l2.438,2.157Zm.378-4.087v1.45H21.873v-1.45ZM21.76,133.88h1.835l-1.463,2.157H19.319Zm-2.84,3.931V136.52h3.1v1.291a1.548,1.548,0,1,1-3.1,0Zm.644,3.387a2.9,2.9,0,0,1,2.893,2.893c0,1.39-2.229,4.23-2.893,5.046-.663-.82-2.889-3.66-2.889-5.046A2.9,2.9,0,0,1,19.564,141.2Zm10.31,1.762a.307.307,0,0,1,.305-.309l3.642-.013a.307.307,0,0,1,.309.305l.02,6.327-4.256.007Zm4.764,6.317-.02-6.334a.8.8,0,0,0-.793-.793h0l-3.642.013a.8.8,0,0,0-.793.8l.02,6.317H20.078c.819-1.019,2.866-3.712,2.866-5.186a3.384,3.384,0,0,0-2.869-3.338V139.8a1.945,1.945,0,0,0,.395.04,2.039,2.039,0,0,0,1.791-1.072,2.033,2.033,0,0,0,3.583,0,2.033,2.033,0,0,0,3.583,0,2.033,2.033,0,0,0,3.583,0,2.039,2.039,0,0,0,1.791,1.072,1.939,1.939,0,0,0,.395-.04v.906H28.01a.242.242,0,0,0,0,.484H35.2v8.082Z" transform="translate(-15.503 -130.253)" fill="#404040" stroke="#404040" stroke-width="0.2"/>
      <path id="Path_47281" data-name="Path 47281" d="M162.155,732.623a1.533,1.533,0,1,0-1.533,1.529A1.533,1.533,0,0,0,162.155,732.623Z" transform="translate(-156.47 -718.944)" fill="#404040" stroke="#404040" stroke-width="0.2"/>
      <path id="Path_47282" data-name="Path 47282" d="M494.789,65.938h7.444a.242.242,0,0,0,0-.484h-7.444a.242.242,0,0,0,0,.484Z" transform="translate(-485.807 -65.454)" fill="#404040" stroke="#404040" stroke-width="0.2"/>
      <path id="Path_47283" data-name="Path 47283" d="M465.5,717.82H462a.725.725,0,0,0-.723.723v2.3a.725.725,0,0,0,.723.723h3.5a.725.725,0,0,0,.723-.723v-2.3A.721.721,0,0,0,465.5,717.82Zm-1.994,3.268H462a.238.238,0,0,1-.239-.239v-.883H463.5v1.121Zm0-1.609h-1.745v-.936A.238.238,0,0,1,462,718.3h1.509v1.174Zm2.232,1.37a.238.238,0,0,1-.239.239H463.99v-1.121h1.745v.883Zm0-1.37h-1.745v-1.171H465.5a.238.238,0,0,1,.239.239v.932Z" transform="translate(-453.14 -705.916)" fill="#404040" stroke="#404040" stroke-width="0.2"/>
    </g>
  </g>
</svg>
