<svg xmlns="http://www.w3.org/2000/svg" width="24" height="24" viewBox="0 0 24 24">
  <g id="wallet-icn-24" transform="translate(-20 -431)">
    <rect id="Rectangle_9937" data-name="Rectangle 9937" width="24" height="24" transform="translate(20 431)" fill="none"/>
    <g id="wallet-refund-icn" transform="translate(21.333 434.333)">
      <path id="Path_47273" data-name="Path 47273" d="M85,163.12a4.333,4.333,0,1,0,4.333-4.33A4.337,4.337,0,0,0,85,163.12Zm4.333-3.664a3.664,3.664,0,1,1-3.667,3.664A3.67,3.67,0,0,1,89.333,159.456Z" transform="translate(-83.489 -158.024)" fill="#404040"/>
      <path id="Path_47275" data-name="Path 47275" d="M458.97,119.742a5.226,5.226,0,0,1,1.8,1.85,5.164,5.164,0,0,1-1.478,6.77l.017-.265a.333.333,0,0,0-.665-.043l-.059.917a.333.333,0,0,0,.311.354l.956.062h.022a.333.333,0,0,0,.044-.663,5.835,5.835,0,0,0-.6-9.55.333.333,0,1,0-.348.568Z" transform="translate(-450.432 -119.063)" fill="#404040"/>
      <path id="Path_47276" data-name="Path 47276" d="M3.362,125.289A5.167,5.167,0,0,1,2.6,116.72l-.014.222a.333.333,0,0,0,.311.354h.022a.333.333,0,0,0,.332-.312l.059-.917A.333.333,0,0,0,3,115.715l-.956-.062a.333.333,0,1,0-.043.665l.039,0A5.89,5.89,0,0,0,.771,117.85a5.834,5.834,0,0,0,2.27,8.023.333.333,0,1,0,.321-.584Z" transform="translate(0.001 -115.653)" fill="#404040"/>
      <path id="Path_47277" data-name="Path 47277" d="M324.626,383.782h-7.32a.333.333,0,1,0,0,.666h7.32a.5.5,0,0,1,.5.5v2.532H321.71a2.332,2.332,0,1,0,0,4.663h3.421v2.91a.5.5,0,0,1-.5.5h-13.48a.5.5,0,0,1-.5-.5v-5.613a.333.333,0,0,0-.667,0v5.613a1.172,1.172,0,0,0,1.171,1.17h13.48a1.172,1.172,0,0,0,1.171-1.17v-10.1a1.172,1.172,0,0,0-1.171-1.17Zm.5,7.7H321.71a1.665,1.665,0,1,1,0-3.331h3.421Z" transform="translate(-304.464 -379.019)" fill="#404040"/>
      <path id="Path_47278" data-name="Path 47278" d="M690.011,208.275l5.644-1.286a.217.217,0,0,1,.192.037.424.424,0,0,1,.125.332V208.4a.333.333,0,0,0,.667,0v-1.047a1.073,1.073,0,0,0-.376-.853.877.877,0,0,0-.756-.165l-5.644,1.286a.333.333,0,1,0,.148.65Z" transform="translate(-677.344 -204.704)" fill="#404040"/>
      <path id="Path_47279" data-name="Path 47279" d="M913.84,668.169a1,1,0,1,0,1-1A1,1,0,0,0,913.84,668.169Zm1.333,0a.333.333,0,1,1-.333-.333A.334.334,0,0,1,915.173,668.169Z" transform="translate(-897.594 -657.372)" fill="#404040"/>
      <path id="noun-rupee-60212-404040" d="M370.017,292.86l-.272.376h.764a1.03,1.03,0,0,1,.827.413h-1.324l-.273.376H371.4c0,.007,0,.013,0,.021s-.008.824-1.508.681v.178l0,.193,1.618,1.762h.616v-.078l-1.553-1.747v-.025s1.222.018,1.424-.978a.033.033,0,0,1,0-.006h.513l.272-.376h-.808a.837.837,0,0,0-.215-.413h.756l.272-.376Z" transform="translate(-365.422 -289.667)" fill="#404040" fill-rule="evenodd"/>
    </g>
  </g>
</svg>
